<?xml version="1.0" encoding="utf-8" standalone="no"?>
<!DOCTYPE svg PUBLIC "-//W3C//DTD SVG 1.1//EN"
  "http://www.w3.org/Graphics/SVG/1.1/DTD/svg11.dtd">
<!-- Created with matplotlib (http://matplotlib.org/) -->
<svg height="576pt" version="1.1" viewBox="0 0 576 576" width="576pt" xmlns="http://www.w3.org/2000/svg" xmlns:xlink="http://www.w3.org/1999/xlink">
 <defs>
  <style type="text/css">
*{stroke-linecap:butt;stroke-linejoin:round;}
  </style>
 </defs>
 <g id="figure_1">
  <g id="patch_1">
   <path d="M 0 576 
L 576 576 
L 576 0 
L 0 0 
z
" style="fill:none;"/>
  </g>
  <g id="axes_1">
   <g id="patch_2">
    <path d="M 72 266.792727 
L 274.909091 266.792727 
L 274.909091 69.12 
L 72 69.12 
z
" style="fill:none;"/>
   </g>
   <g id="matplotlib.axis_1">
    <g id="xtick_1">
     <g id="line2d_1">
      <defs>
       <path d="M 0 0 
L 0 3.5 
" id="me53bd5549e" style="stroke:#000000;stroke-width:0.8;"/>
      </defs>
      <g>
       <use style="stroke:#000000;stroke-width:0.8;" x="81.22314" xlink:href="#me53bd5549e" y="266.792727"/>
      </g>
     </g>
     <g id="text_1">
      <!-- 0 -->
      <defs>
       <path d="M 31.78125 66.40625 
Q 24.171875 66.40625 20.328125 58.90625 
Q 16.5 51.421875 16.5 36.375 
Q 16.5 21.390625 20.328125 13.890625 
Q 24.171875 6.390625 31.78125 6.390625 
Q 39.453125 6.390625 43.28125 13.890625 
Q 47.125 21.390625 47.125 36.375 
Q 47.125 51.421875 43.28125 58.90625 
Q 39.453125 66.40625 31.78125 66.40625 
z
M 31.78125 74.21875 
Q 44.046875 74.21875 50.515625 64.515625 
Q 56.984375 54.828125 56.984375 36.375 
Q 56.984375 17.96875 50.515625 8.265625 
Q 44.046875 -1.421875 31.78125 -1.421875 
Q 19.53125 -1.421875 13.0625 8.265625 
Q 6.59375 17.96875 6.59375 36.375 
Q 6.59375 54.828125 13.0625 64.515625 
Q 19.53125 74.21875 31.78125 74.21875 
z
" id="DejaVuSans-30"/>
      </defs>
      <g transform="translate(76.13314 285.950227)scale(0.16 -0.16)">
       <use xlink:href="#DejaVuSans-30"/>
      </g>
     </g>
    </g>
    <g id="xtick_2">
     <g id="line2d_2">
      <g>
       <use style="stroke:#000000;stroke-width:0.8;" x="155.008264" xlink:href="#me53bd5549e" y="266.792727"/>
      </g>
     </g>
     <g id="text_2">
      <!-- 2 -->
      <defs>
       <path d="M 19.1875 8.296875 
L 53.609375 8.296875 
L 53.609375 0 
L 7.328125 0 
L 7.328125 8.296875 
Q 12.9375 14.109375 22.625 23.890625 
Q 32.328125 33.6875 34.8125 36.53125 
Q 39.546875 41.84375 41.421875 45.53125 
Q 43.3125 49.21875 43.3125 52.78125 
Q 43.3125 58.59375 39.234375 62.25 
Q 35.15625 65.921875 28.609375 65.921875 
Q 23.96875 65.921875 18.8125 64.3125 
Q 13.671875 62.703125 7.8125 59.421875 
L 7.8125 69.390625 
Q 13.765625 71.78125 18.9375 73 
Q 24.125 74.21875 28.421875 74.21875 
Q 39.75 74.21875 46.484375 68.546875 
Q 53.21875 62.890625 53.21875 53.421875 
Q 53.21875 48.921875 51.53125 44.890625 
Q 49.859375 40.875 45.40625 35.40625 
Q 44.1875 33.984375 37.640625 27.21875 
Q 31.109375 20.453125 19.1875 8.296875 
z
" id="DejaVuSans-32"/>
      </defs>
      <g transform="translate(149.918264 285.950227)scale(0.16 -0.16)">
       <use xlink:href="#DejaVuSans-32"/>
      </g>
     </g>
    </g>
    <g id="xtick_3">
     <g id="line2d_3">
      <g>
       <use style="stroke:#000000;stroke-width:0.8;" x="228.793388" xlink:href="#me53bd5549e" y="266.792727"/>
      </g>
     </g>
     <g id="text_3">
      <!-- 4 -->
      <defs>
       <path d="M 37.796875 64.3125 
L 12.890625 25.390625 
L 37.796875 25.390625 
z
M 35.203125 72.90625 
L 47.609375 72.90625 
L 47.609375 25.390625 
L 58.015625 25.390625 
L 58.015625 17.1875 
L 47.609375 17.1875 
L 47.609375 0 
L 37.796875 0 
L 37.796875 17.1875 
L 4.890625 17.1875 
L 4.890625 26.703125 
z
" id="DejaVuSans-34"/>
      </defs>
      <g transform="translate(223.703388 285.950227)scale(0.16 -0.16)">
       <use xlink:href="#DejaVuSans-34"/>
      </g>
     </g>
    </g>
   </g>
   <g id="matplotlib.axis_2">
    <g id="ytick_1">
     <g id="line2d_4">
      <defs>
       <path d="M 0 0 
L -3.5 0 
" id="m2387a2455f" style="stroke:#000000;stroke-width:0.8;"/>
      </defs>
      <g>
       <use style="stroke:#000000;stroke-width:0.8;" x="72" xlink:href="#m2387a2455f" y="257.808274"/>
      </g>
     </g>
     <g id="text_4">
      <!-- 0.0 -->
      <defs>
       <path d="M 10.6875 12.40625 
L 21 12.40625 
L 21 0 
L 10.6875 0 
z
" id="DejaVuSans-2e"/>
      </defs>
      <g transform="translate(39.555 263.887024)scale(0.16 -0.16)">
       <use xlink:href="#DejaVuSans-30"/>
       <use x="63.623047" xlink:href="#DejaVuSans-2e"/>
       <use x="95.410156" xlink:href="#DejaVuSans-30"/>
      </g>
     </g>
    </g>
    <g id="ytick_2">
     <g id="line2d_5">
      <g>
       <use style="stroke:#000000;stroke-width:0.8;" x="72" xlink:href="#m2387a2455f" y="212.706079"/>
      </g>
     </g>
     <g id="text_5">
      <!-- 0.5 -->
      <defs>
       <path d="M 10.796875 72.90625 
L 49.515625 72.90625 
L 49.515625 64.59375 
L 19.828125 64.59375 
L 19.828125 46.734375 
Q 21.96875 47.46875 24.109375 47.828125 
Q 26.265625 48.1875 28.421875 48.1875 
Q 40.625 48.1875 47.75 41.5 
Q 54.890625 34.8125 54.890625 23.390625 
Q 54.890625 11.625 47.5625 5.09375 
Q 40.234375 -1.421875 26.90625 -1.421875 
Q 22.3125 -1.421875 17.546875 -0.640625 
Q 12.796875 0.140625 7.71875 1.703125 
L 7.71875 11.625 
Q 12.109375 9.234375 16.796875 8.0625 
Q 21.484375 6.890625 26.703125 6.890625 
Q 35.15625 6.890625 40.078125 11.328125 
Q 45.015625 15.765625 45.015625 23.390625 
Q 45.015625 31 40.078125 35.4375 
Q 35.15625 39.890625 26.703125 39.890625 
Q 22.75 39.890625 18.8125 39.015625 
Q 14.890625 38.140625 10.796875 36.28125 
z
" id="DejaVuSans-35"/>
      </defs>
      <g transform="translate(39.555 218.784829)scale(0.16 -0.16)">
       <use xlink:href="#DejaVuSans-30"/>
       <use x="63.623047" xlink:href="#DejaVuSans-2e"/>
       <use x="95.410156" xlink:href="#DejaVuSans-35"/>
      </g>
     </g>
    </g>
    <g id="ytick_3">
     <g id="line2d_6">
      <g>
       <use style="stroke:#000000;stroke-width:0.8;" x="72" xlink:href="#m2387a2455f" y="167.603884"/>
      </g>
     </g>
     <g id="text_6">
      <!-- 1.0 -->
      <defs>
       <path d="M 12.40625 8.296875 
L 28.515625 8.296875 
L 28.515625 63.921875 
L 10.984375 60.40625 
L 10.984375 69.390625 
L 28.421875 72.90625 
L 38.28125 72.90625 
L 38.28125 8.296875 
L 54.390625 8.296875 
L 54.390625 0 
L 12.40625 0 
z
" id="DejaVuSans-31"/>
      </defs>
      <g transform="translate(39.555 173.682634)scale(0.16 -0.16)">
       <use xlink:href="#DejaVuSans-31"/>
       <use x="63.623047" xlink:href="#DejaVuSans-2e"/>
       <use x="95.410156" xlink:href="#DejaVuSans-30"/>
      </g>
     </g>
    </g>
    <g id="ytick_4">
     <g id="line2d_7">
      <g>
       <use style="stroke:#000000;stroke-width:0.8;" x="72" xlink:href="#m2387a2455f" y="122.501689"/>
      </g>
     </g>
     <g id="text_7">
      <!-- 1.5 -->
      <g transform="translate(39.555 128.580439)scale(0.16 -0.16)">
       <use xlink:href="#DejaVuSans-31"/>
       <use x="63.623047" xlink:href="#DejaVuSans-2e"/>
       <use x="95.410156" xlink:href="#DejaVuSans-35"/>
      </g>
     </g>
    </g>
    <g id="ytick_5">
     <g id="line2d_8">
      <g>
       <use style="stroke:#000000;stroke-width:0.8;" x="72" xlink:href="#m2387a2455f" y="77.399495"/>
      </g>
     </g>
     <g id="text_8">
      <!-- 2.0 -->
      <g transform="translate(39.555 83.478245)scale(0.16 -0.16)">
       <use xlink:href="#DejaVuSans-32"/>
       <use x="63.623047" xlink:href="#DejaVuSans-2e"/>
       <use x="95.410156" xlink:href="#DejaVuSans-30"/>
      </g>
     </g>
    </g>
   </g>
   <g id="line2d_9">
    <defs>
     <path d="M 0 1.5 
C 0.397805 1.5 0.77937 1.341951 1.06066 1.06066 
C 1.341951 0.77937 1.5 0.397805 1.5 0 
C 1.5 -0.397805 1.341951 -0.77937 1.06066 -1.06066 
C 0.77937 -1.341951 0.397805 -1.5 0 -1.5 
C -0.397805 -1.5 -0.77937 -1.341951 -1.06066 -1.06066 
C -1.341951 -0.77937 -1.5 -0.397805 -1.5 0 
C -1.5 0.397805 -1.341951 0.77937 -1.06066 1.06066 
C -0.77937 1.341951 -0.397805 1.5 0 1.5 
z
" id="m2bc6d52f25" style="stroke:#1f77b4;"/>
    </defs>
    <g clip-path="url(#pc743cef59b)">
     <use style="fill:#1f77b4;stroke:#1f77b4;" x="81.22314" xlink:href="#m2bc6d52f25" y="257.807603"/>
     <use style="fill:#1f77b4;stroke:#1f77b4;" x="83.086401" xlink:href="#m2bc6d52f25" y="257.807023"/>
     <use style="fill:#1f77b4;stroke:#1f77b4;" x="84.949662" xlink:href="#m2bc6d52f25" y="257.805978"/>
     <use style="fill:#1f77b4;stroke:#1f77b4;" x="86.812923" xlink:href="#m2bc6d52f25" y="257.804126"/>
     <use style="fill:#1f77b4;stroke:#1f77b4;" x="88.676183" xlink:href="#m2bc6d52f25" y="257.800899"/>
     <use style="fill:#1f77b4;stroke:#1f77b4;" x="90.539444" xlink:href="#m2bc6d52f25" y="257.795369"/>
     <use style="fill:#1f77b4;stroke:#1f77b4;" x="92.402705" xlink:href="#m2bc6d52f25" y="257.786048"/>
     <use style="fill:#1f77b4;stroke:#1f77b4;" x="94.265965" xlink:href="#m2bc6d52f25" y="257.770601"/>
     <use style="fill:#1f77b4;stroke:#1f77b4;" x="96.129226" xlink:href="#m2bc6d52f25" y="257.745428"/>
     <use style="fill:#1f77b4;stroke:#1f77b4;" x="97.992487" xlink:href="#m2bc6d52f25" y="257.705092"/>
     <use style="fill:#1f77b4;stroke:#1f77b4;" x="99.855748" xlink:href="#m2bc6d52f25" y="257.641548"/>
     <use style="fill:#1f77b4;stroke:#1f77b4;" x="101.719008" xlink:href="#m2bc6d52f25" y="257.54313"/>
     <use style="fill:#1f77b4;stroke:#1f77b4;" x="103.582269" xlink:href="#m2bc6d52f25" y="257.393286"/>
     <use style="fill:#1f77b4;stroke:#1f77b4;" x="105.44553" xlink:href="#m2bc6d52f25" y="257.169032"/>
     <use style="fill:#1f77b4;stroke:#1f77b4;" x="107.30879" xlink:href="#m2bc6d52f25" y="256.839166"/>
     <use style="fill:#1f77b4;stroke:#1f77b4;" x="109.172051" xlink:href="#m2bc6d52f25" y="256.362317"/>
     <use style="fill:#1f77b4;stroke:#1f77b4;" x="111.035312" xlink:href="#m2bc6d52f25" y="255.684957"/>
     <use style="fill:#1f77b4;stroke:#1f77b4;" x="112.898573" xlink:href="#m2bc6d52f25" y="254.7396"/>
     <use style="fill:#1f77b4;stroke:#1f77b4;" x="114.761833" xlink:href="#m2bc6d52f25" y="253.443488"/>
     <use style="fill:#1f77b4;stroke:#1f77b4;" x="116.625094" xlink:href="#m2bc6d52f25" y="251.698128"/>
     <use style="fill:#1f77b4;stroke:#1f77b4;" x="118.488355" xlink:href="#m2bc6d52f25" y="249.390125"/>
     <use style="fill:#1f77b4;stroke:#1f77b4;" x="120.351615" xlink:href="#m2bc6d52f25" y="246.393746"/>
     <use style="fill:#1f77b4;stroke:#1f77b4;" x="122.214876" xlink:href="#m2bc6d52f25" y="242.575616"/>
     <use style="fill:#1f77b4;stroke:#1f77b4;" x="124.078137" xlink:href="#m2bc6d52f25" y="237.801835"/>
     <use style="fill:#1f77b4;stroke:#1f77b4;" x="125.941397" xlink:href="#m2bc6d52f25" y="231.947575"/>
     <use style="fill:#1f77b4;stroke:#1f77b4;" x="127.804658" xlink:href="#m2bc6d52f25" y="224.908941"/>
     <use style="fill:#1f77b4;stroke:#1f77b4;" x="129.667919" xlink:href="#m2bc6d52f25" y="216.616519"/>
     <use style="fill:#1f77b4;stroke:#1f77b4;" x="131.53118" xlink:href="#m2bc6d52f25" y="207.049646"/>
     <use style="fill:#1f77b4;stroke:#1f77b4;" x="133.39444" xlink:href="#m2bc6d52f25" y="196.250088"/>
     <use style="fill:#1f77b4;stroke:#1f77b4;" x="135.257701" xlink:href="#m2bc6d52f25" y="184.333523"/>
     <use style="fill:#1f77b4;stroke:#1f77b4;" x="137.120962" xlink:href="#m2bc6d52f25" y="171.497144"/>
     <use style="fill:#1f77b4;stroke:#1f77b4;" x="138.984222" xlink:href="#m2bc6d52f25" y="158.021761"/>
     <use style="fill:#1f77b4;stroke:#1f77b4;" x="140.847483" xlink:href="#m2bc6d52f25" y="144.267131"/>
     <use style="fill:#1f77b4;stroke:#1f77b4;" x="142.710744" xlink:href="#m2bc6d52f25" y="130.659831"/>
     <use style="fill:#1f77b4;stroke:#1f77b4;" x="144.574005" xlink:href="#m2bc6d52f25" y="117.673732"/>
     <use style="fill:#1f77b4;stroke:#1f77b4;" x="146.437265" xlink:href="#m2bc6d52f25" y="105.804028"/>
     <use style="fill:#1f77b4;stroke:#1f77b4;" x="148.300526" xlink:href="#m2bc6d52f25" y="95.53664"/>
     <use style="fill:#1f77b4;stroke:#1f77b4;" x="150.163787" xlink:href="#m2bc6d52f25" y="87.315543"/>
     <use style="fill:#1f77b4;stroke:#1f77b4;" x="152.027047" xlink:href="#m2bc6d52f25" y="81.511042"/>
     <use style="fill:#1f77b4;stroke:#1f77b4;" x="153.890308" xlink:href="#m2bc6d52f25" y="78.392142"/>
     <use style="fill:#1f77b4;stroke:#1f77b4;" x="155.753569" xlink:href="#m2bc6d52f25" y="78.105885"/>
     <use style="fill:#1f77b4;stroke:#1f77b4;" x="157.616829" xlink:href="#m2bc6d52f25" y="80.66585"/>
     <use style="fill:#1f77b4;stroke:#1f77b4;" x="159.48009" xlink:href="#m2bc6d52f25" y="85.951093"/>
     <use style="fill:#1f77b4;stroke:#1f77b4;" x="161.343351" xlink:href="#m2bc6d52f25" y="93.715615"/>
     <use style="fill:#1f77b4;stroke:#1f77b4;" x="163.206612" xlink:href="#m2bc6d52f25" y="103.607345"/>
     <use style="fill:#1f77b4;stroke:#1f77b4;" x="165.069872" xlink:href="#m2bc6d52f25" y="115.194591"/>
     <use style="fill:#1f77b4;stroke:#1f77b4;" x="166.933133" xlink:href="#m2bc6d52f25" y="127.997192"/>
     <use style="fill:#1f77b4;stroke:#1f77b4;" x="168.796394" xlink:href="#m2bc6d52f25" y="141.519254"/>
     <use style="fill:#1f77b4;stroke:#1f77b4;" x="170.659654" xlink:href="#m2bc6d52f25" y="155.280384"/>
     <use style="fill:#1f77b4;stroke:#1f77b4;" x="172.522915" xlink:href="#m2bc6d52f25" y="168.842758"/>
     <use style="fill:#1f77b4;stroke:#1f77b4;" x="174.386176" xlink:href="#m2bc6d52f25" y="181.832042"/>
     <use style="fill:#1f77b4;stroke:#1f77b4;" x="176.249437" xlink:href="#m2bc6d52f25" y="193.951031"/>
     <use style="fill:#1f77b4;stroke:#1f77b4;" x="178.112697" xlink:href="#m2bc6d52f25" y="204.985774"/>
     <use style="fill:#1f77b4;stroke:#1f77b4;" x="179.975958" xlink:href="#m2bc6d52f25" y="214.804744"/>
     <use style="fill:#1f77b4;stroke:#1f77b4;" x="181.839219" xlink:href="#m2bc6d52f25" y="223.352213"/>
     <use style="fill:#1f77b4;stroke:#1f77b4;" x="183.702479" xlink:href="#m2bc6d52f25" y="230.637404"/>
     <use style="fill:#1f77b4;stroke:#1f77b4;" x="185.56574" xlink:href="#m2bc6d52f25" y="236.721123"/>
     <use style="fill:#1f77b4;stroke:#1f77b4;" x="187.429001" xlink:href="#m2bc6d52f25" y="241.701479"/>
     <use style="fill:#1f77b4;stroke:#1f77b4;" x="189.292261" xlink:href="#m2bc6d52f25" y="245.700083"/>
     <use style="fill:#1f77b4;stroke:#1f77b4;" x="191.155522" xlink:href="#m2bc6d52f25" y="248.849712"/>
     <use style="fill:#1f77b4;stroke:#1f77b4;" x="193.018783" xlink:href="#m2bc6d52f25" y="251.283993"/>
     <use style="fill:#1f77b4;stroke:#1f77b4;" x="194.882044" xlink:href="#m2bc6d52f25" y="253.129121"/>
     <use style="fill:#1f77b4;stroke:#1f77b4;" x="196.745304" xlink:href="#m2bc6d52f25" y="254.496958"/>
     <use style="fill:#1f77b4;stroke:#1f77b4;" x="198.608565" xlink:href="#m2bc6d52f25" y="255.477961"/>
     <use style="fill:#1f77b4;stroke:#1f77b4;" x="200.471826" xlink:href="#m2bc6d52f25" y="256.131114"/>
     <use style="fill:#1f77b4;stroke:#1f77b4;" x="202.335086" xlink:href="#m2bc6d52f25" y="256.466714"/>
     <use style="fill:#1f77b4;stroke:#1f77b4;" x="204.198347" xlink:href="#m2bc6d52f25" y="256.41707"/>
     <use style="fill:#1f77b4;stroke:#1f77b4;" x="206.061608" xlink:href="#m2bc6d52f25" y="255.791817"/>
     <use style="fill:#1f77b4;stroke:#1f77b4;" x="207.924869" xlink:href="#m2bc6d52f25" y="254.220998"/>
     <use style="fill:#1f77b4;stroke:#1f77b4;" x="209.788129" xlink:href="#m2bc6d52f25" y="251.102238"/>
     <use style="fill:#1f77b4;stroke:#1f77b4;" x="211.65139" xlink:href="#m2bc6d52f25" y="245.586471"/>
     <use style="fill:#1f77b4;stroke:#1f77b4;" x="213.514651" xlink:href="#m2bc6d52f25" y="236.651644"/>
     <use style="fill:#1f77b4;stroke:#1f77b4;" x="215.377911" xlink:href="#m2bc6d52f25" y="223.310427"/>
     <use style="fill:#1f77b4;stroke:#1f77b4;" x="217.241172" xlink:href="#m2bc6d52f25" y="204.961043"/>
     <use style="fill:#1f77b4;stroke:#1f77b4;" x="219.104433" xlink:href="#m2bc6d52f25" y="181.817637"/>
     <use style="fill:#1f77b4;stroke:#1f77b4;" x="220.967693" xlink:href="#m2bc6d52f25" y="155.272125"/>
     <use style="fill:#1f77b4;stroke:#1f77b4;" x="222.830954" xlink:href="#m2bc6d52f25" y="127.992533"/>
     <use style="fill:#1f77b4;stroke:#1f77b4;" x="224.694215" xlink:href="#m2bc6d52f25" y="103.604758"/>
     <use style="fill:#1f77b4;stroke:#1f77b4;" x="226.557476" xlink:href="#m2bc6d52f25" y="85.949679"/>
     <use style="fill:#1f77b4;stroke:#1f77b4;" x="228.420736" xlink:href="#m2bc6d52f25" y="78.105124"/>
     <use style="fill:#1f77b4;stroke:#1f77b4;" x="230.283997" xlink:href="#m2bc6d52f25" y="81.510639"/>
     <use style="fill:#1f77b4;stroke:#1f77b4;" x="232.147258" xlink:href="#m2bc6d52f25" y="95.53643"/>
     <use style="fill:#1f77b4;stroke:#1f77b4;" x="234.010518" xlink:href="#m2bc6d52f25" y="117.673624"/>
     <use style="fill:#1f77b4;stroke:#1f77b4;" x="235.873779" xlink:href="#m2bc6d52f25" y="144.267076"/>
     <use style="fill:#1f77b4;stroke:#1f77b4;" x="237.73704" xlink:href="#m2bc6d52f25" y="171.497117"/>
     <use style="fill:#1f77b4;stroke:#1f77b4;" x="239.600301" xlink:href="#m2bc6d52f25" y="196.250075"/>
     <use style="fill:#1f77b4;stroke:#1f77b4;" x="241.463561" xlink:href="#m2bc6d52f25" y="216.616512"/>
     <use style="fill:#1f77b4;stroke:#1f77b4;" x="243.326822" xlink:href="#m2bc6d52f25" y="231.947572"/>
     <use style="fill:#1f77b4;stroke:#1f77b4;" x="245.190083" xlink:href="#m2bc6d52f25" y="242.575615"/>
     <use style="fill:#1f77b4;stroke:#1f77b4;" x="247.053343" xlink:href="#m2bc6d52f25" y="249.390124"/>
     <use style="fill:#1f77b4;stroke:#1f77b4;" x="248.916604" xlink:href="#m2bc6d52f25" y="253.443487"/>
     <use style="fill:#1f77b4;stroke:#1f77b4;" x="250.779865" xlink:href="#m2bc6d52f25" y="255.684957"/>
     <use style="fill:#1f77b4;stroke:#1f77b4;" x="252.643125" xlink:href="#m2bc6d52f25" y="256.839166"/>
     <use style="fill:#1f77b4;stroke:#1f77b4;" x="254.506386" xlink:href="#m2bc6d52f25" y="257.393286"/>
     <use style="fill:#1f77b4;stroke:#1f77b4;" x="256.369647" xlink:href="#m2bc6d52f25" y="257.641548"/>
     <use style="fill:#1f77b4;stroke:#1f77b4;" x="258.232908" xlink:href="#m2bc6d52f25" y="257.745428"/>
     <use style="fill:#1f77b4;stroke:#1f77b4;" x="260.096168" xlink:href="#m2bc6d52f25" y="257.786048"/>
     <use style="fill:#1f77b4;stroke:#1f77b4;" x="261.959429" xlink:href="#m2bc6d52f25" y="257.800899"/>
     <use style="fill:#1f77b4;stroke:#1f77b4;" x="263.82269" xlink:href="#m2bc6d52f25" y="257.805978"/>
     <use style="fill:#1f77b4;stroke:#1f77b4;" x="265.68595" xlink:href="#m2bc6d52f25" y="257.807603"/>
    </g>
   </g>
   <g id="patch_3">
    <path d="M 72 266.792727 
L 72 69.12 
" style="fill:none;stroke:#000000;stroke-linecap:square;stroke-linejoin:miter;stroke-width:0.8;"/>
   </g>
   <g id="patch_4">
    <path d="M 274.909091 266.792727 
L 274.909091 69.12 
" style="fill:none;stroke:#000000;stroke-linecap:square;stroke-linejoin:miter;stroke-width:0.8;"/>
   </g>
   <g id="patch_5">
    <path d="M 72 266.792727 
L 274.909091 266.792727 
" style="fill:none;stroke:#000000;stroke-linecap:square;stroke-linejoin:miter;stroke-width:0.8;"/>
   </g>
   <g id="patch_6">
    <path d="M 72 69.12 
L 274.909091 69.12 
" style="fill:none;stroke:#000000;stroke-linecap:square;stroke-linejoin:miter;stroke-width:0.8;"/>
   </g>
   <g id="text_9">
    <!-- Измеряемый сигнал -->
    <defs>
     <path d="M 64.984375 72.90625 
L 64.984375 0 
L 55.421875 0 
L 55.421875 60.984375 
L 23.09375 0 
L 9.8125 0 
L 9.8125 72.90625 
L 19.390625 72.90625 
L 19.390625 11.921875 
L 51.703125 72.90625 
z
" id="DejaVuSans-418"/>
     <path d="M 34.46875 29.5 
Q 40.53125 28.328125 43.890625 24.75 
Q 47.265625 21.1875 47.265625 15.921875 
Q 47.265625 7.46875 40.96875 3.015625 
Q 34.671875 -1.421875 23.046875 -1.421875 
Q 19.140625 -1.421875 15.015625 -0.734375 
Q 10.890625 -0.046875 6.5 1.3125 
L 6.5 9.671875 
Q 9.96875 7.859375 14.109375 6.953125 
Q 18.265625 6.0625 22.796875 6.0625 
Q 30.171875 6.0625 34.296875 8.796875 
Q 38.421875 11.53125 38.421875 15.921875 
Q 38.421875 20.21875 34.765625 22.828125 
Q 31.109375 25.4375 24.421875 25.4375 
L 17.1875 25.4375 
L 17.1875 32.859375 
L 24.75 32.859375 
Q 30.421875 32.859375 33.71875 35.03125 
Q 37.015625 37.203125 37.015625 40.625 
Q 37.015625 43.75 33.609375 46 
Q 30.21875 48.25 24.421875 48.25 
Q 20.953125 48.25 17.015625 47.609375 
Q 13.09375 46.96875 8.34375 45.5625 
L 8.34375 53.71875 
Q 13.140625 54.890625 17.28125 55.46875 
Q 21.4375 56.0625 25.140625 56.0625 
Q 34.71875 56.0625 40.25 52.21875 
Q 45.796875 48.390625 45.796875 41.5 
Q 45.796875 36.96875 42.859375 33.8125 
Q 39.9375 30.671875 34.46875 29.5 
z
" id="DejaVuSans-437"/>
     <path d="M 9.078125 54.6875 
L 22.21875 54.6875 
L 37.75 18.0625 
L 53.328125 54.6875 
L 66.359375 54.6875 
L 66.359375 0 
L 57.328125 0 
L 57.328125 46.09375 
L 42.234375 10.5 
L 33.25 10.5 
L 18.109375 46.09375 
L 18.109375 0 
L 9.078125 0 
z
" id="DejaVuSans-43c"/>
     <path d="M 56.203125 29.59375 
L 56.203125 25.203125 
L 14.890625 25.203125 
Q 15.484375 15.921875 20.484375 11.0625 
Q 25.484375 6.203125 34.421875 6.203125 
Q 39.59375 6.203125 44.453125 7.46875 
Q 49.3125 8.734375 54.109375 11.28125 
L 54.109375 2.78125 
Q 49.265625 0.734375 44.1875 -0.34375 
Q 39.109375 -1.421875 33.890625 -1.421875 
Q 20.796875 -1.421875 13.15625 6.1875 
Q 5.515625 13.8125 5.515625 26.8125 
Q 5.515625 40.234375 12.765625 48.109375 
Q 20.015625 56 32.328125 56 
Q 43.359375 56 49.78125 48.890625 
Q 56.203125 41.796875 56.203125 29.59375 
z
M 47.21875 32.234375 
Q 47.125 39.59375 43.09375 43.984375 
Q 39.0625 48.390625 32.421875 48.390625 
Q 24.90625 48.390625 20.390625 44.140625 
Q 15.875 39.890625 15.1875 32.171875 
z
" id="DejaVuSans-435"/>
     <path d="M 18.109375 8.203125 
L 18.109375 -20.796875 
L 9.078125 -20.796875 
L 9.078125 54.6875 
L 18.109375 54.6875 
L 18.109375 46.390625 
Q 20.953125 51.265625 25.265625 53.625 
Q 29.59375 56 35.59375 56 
Q 45.5625 56 51.78125 48.09375 
Q 58.015625 40.1875 58.015625 27.296875 
Q 58.015625 14.40625 51.78125 6.484375 
Q 45.5625 -1.421875 35.59375 -1.421875 
Q 29.59375 -1.421875 25.265625 0.953125 
Q 20.953125 3.328125 18.109375 8.203125 
z
M 48.6875 27.296875 
Q 48.6875 37.203125 44.609375 42.84375 
Q 40.53125 48.484375 33.40625 48.484375 
Q 26.265625 48.484375 22.1875 42.84375 
Q 18.109375 37.203125 18.109375 27.296875 
Q 18.109375 17.390625 22.1875 11.75 
Q 26.265625 6.109375 33.40625 6.109375 
Q 40.53125 6.109375 44.609375 11.75 
Q 48.6875 17.390625 48.6875 27.296875 
z
" id="DejaVuSans-440"/>
     <path d="M 18.453125 38.921875 
Q 18.453125 34.859375 21.578125 32.5625 
Q 24.703125 30.28125 30.515625 30.28125 
L 42.625 30.28125 
L 42.625 47.515625 
L 30.515625 47.515625 
Q 24.703125 47.515625 21.578125 45.265625 
Q 18.453125 43.015625 18.453125 38.921875 
z
M 5.671875 0 
L 22.359375 23.96875 
Q 16.703125 25.25 12.9375 28.59375 
Q 9.1875 31.9375 9.1875 38.921875 
Q 9.1875 46.828125 14.421875 50.75 
Q 19.671875 54.6875 30.28125 54.6875 
L 51.65625 54.6875 
L 51.65625 0 
L 42.625 0 
L 42.625 23.09375 
L 31.453125 23.09375 
L 15.328125 0 
z
" id="DejaVuSans-44f"/>
     <path d="M 61.078125 54.6875 
L 70.0625 54.6875 
L 70.0625 0 
L 61.078125 0 
z
M 65.578125 56 
z
M 43.453125 16.21875 
Q 43.453125 20.609375 40.25 22.90625 
Q 37.0625 25.203125 30.90625 25.203125 
L 18.109375 25.203125 
L 18.109375 7.171875 
L 30.90625 7.171875 
Q 37.0625 7.171875 40.25 9.484375 
Q 43.453125 11.8125 43.453125 16.21875 
z
M 9.078125 54.6875 
L 18.109375 54.6875 
L 18.109375 32.375 
L 31.296875 32.375 
Q 41.75 32.375 47.390625 28.390625 
Q 53.03125 24.421875 53.03125 16.21875 
Q 53.03125 8.015625 47.390625 4 
Q 41.75 0 31.296875 0 
L 9.078125 0 
z
" id="DejaVuSans-44b"/>
     <path d="M 55.90625 54.6875 
L 55.90625 0 
L 46.96875 0 
L 46.96875 43.890625 
L 20.609375 0 
L 9.078125 0 
L 9.078125 54.6875 
L 18.015625 54.6875 
L 18.015625 10.890625 
L 44.34375 54.6875 
z
M 17.234375 75.96875 
L 23 75.96875 
Q 23.53125 72.3125 25.890625 70.46875 
Q 28.265625 68.640625 32.515625 68.640625 
Q 36.71875 68.640625 39.0625 70.453125 
Q 41.40625 72.265625 42.046875 75.96875 
L 47.796875 75.96875 
Q 47.3125 68.984375 43.453125 65.46875 
Q 39.59375 61.953125 32.515625 61.953125 
Q 25.4375 61.953125 21.578125 65.46875 
Q 17.71875 68.984375 17.234375 75.96875 
z
" id="DejaVuSans-439"/>
     <path id="DejaVuSans-20"/>
     <path d="M 48.78125 52.59375 
L 48.78125 44.1875 
Q 44.96875 46.296875 41.140625 47.34375 
Q 37.3125 48.390625 33.40625 48.390625 
Q 24.65625 48.390625 19.8125 42.84375 
Q 14.984375 37.3125 14.984375 27.296875 
Q 14.984375 17.28125 19.8125 11.734375 
Q 24.65625 6.203125 33.40625 6.203125 
Q 37.3125 6.203125 41.140625 7.25 
Q 44.96875 8.296875 48.78125 10.40625 
L 48.78125 2.09375 
Q 45.015625 0.34375 40.984375 -0.53125 
Q 36.96875 -1.421875 32.421875 -1.421875 
Q 20.0625 -1.421875 12.78125 6.34375 
Q 5.515625 14.109375 5.515625 27.296875 
Q 5.515625 40.671875 12.859375 48.328125 
Q 20.21875 56 33.015625 56 
Q 37.15625 56 41.109375 55.140625 
Q 45.0625 54.296875 48.78125 52.59375 
z
" id="DejaVuSans-441"/>
     <path d="M 55.90625 54.6875 
L 55.90625 0 
L 46.96875 0 
L 46.96875 43.890625 
L 20.609375 0 
L 9.078125 0 
L 9.078125 54.6875 
L 18.015625 54.6875 
L 18.015625 10.890625 
L 44.34375 54.6875 
z
" id="DejaVuSans-438"/>
     <path d="M 9.078125 0 
L 9.078125 54.6875 
L 47.65625 54.6875 
L 47.65625 47.515625 
L 18.109375 47.515625 
L 18.109375 0 
z
" id="DejaVuSans-433"/>
     <path d="M 9.078125 54.6875 
L 18.109375 54.6875 
L 18.109375 32.375 
L 47.265625 32.375 
L 47.265625 54.6875 
L 56.296875 54.6875 
L 56.296875 0 
L 47.265625 0 
L 47.265625 25.203125 
L 18.109375 25.203125 
L 18.109375 0 
L 9.078125 0 
z
" id="DejaVuSans-43d"/>
     <path d="M 34.28125 27.484375 
Q 23.390625 27.484375 19.1875 25 
Q 14.984375 22.515625 14.984375 16.5 
Q 14.984375 11.71875 18.140625 8.90625 
Q 21.296875 6.109375 26.703125 6.109375 
Q 34.1875 6.109375 38.703125 11.40625 
Q 43.21875 16.703125 43.21875 25.484375 
L 43.21875 27.484375 
z
M 52.203125 31.203125 
L 52.203125 0 
L 43.21875 0 
L 43.21875 8.296875 
Q 40.140625 3.328125 35.546875 0.953125 
Q 30.953125 -1.421875 24.3125 -1.421875 
Q 15.921875 -1.421875 10.953125 3.296875 
Q 6 8.015625 6 15.921875 
Q 6 25.140625 12.171875 29.828125 
Q 18.359375 34.515625 30.609375 34.515625 
L 43.21875 34.515625 
L 43.21875 35.40625 
Q 43.21875 41.609375 39.140625 45 
Q 35.0625 48.390625 27.6875 48.390625 
Q 23 48.390625 18.546875 47.265625 
Q 14.109375 46.140625 10.015625 43.890625 
L 10.015625 52.203125 
Q 14.9375 54.109375 19.578125 55.046875 
Q 24.21875 56 28.609375 56 
Q 40.484375 56 46.34375 49.84375 
Q 52.203125 43.703125 52.203125 31.203125 
z
" id="DejaVuSans-430"/>
     <path d="M 3.71875 0 
L 3.71875 7.46875 
Q 12.59375 8.84375 15.328125 14.984375 
Q 18.65625 23.640625 18.65625 45.75 
L 18.65625 54.6875 
L 55.609375 54.6875 
L 55.609375 0 
L 46.625 0 
L 46.625 47.515625 
L 27.640625 47.515625 
L 27.640625 42.09375 
Q 27.640625 21 23.34375 11.53125 
Q 18.75 1.421875 3.71875 0 
z
" id="DejaVuSans-43b"/>
    </defs>
    <g transform="translate(71.274545 63.12)scale(0.192 -0.192)">
     <use xlink:href="#DejaVuSans-418"/>
     <use x="74.804688" xlink:href="#DejaVuSans-437"/>
     <use x="127.978516" xlink:href="#DejaVuSans-43c"/>
     <use x="203.417969" xlink:href="#DejaVuSans-435"/>
     <use x="264.941406" xlink:href="#DejaVuSans-440"/>
     <use x="328.417969" xlink:href="#DejaVuSans-44f"/>
     <use x="388.574219" xlink:href="#DejaVuSans-435"/>
     <use x="450.097656" xlink:href="#DejaVuSans-43c"/>
     <use x="525.537109" xlink:href="#DejaVuSans-44b"/>
     <use x="604.492188" xlink:href="#DejaVuSans-439"/>
     <use x="669.482422" xlink:href="#DejaVuSans-20"/>
     <use x="701.269531" xlink:href="#DejaVuSans-441"/>
     <use x="756.25" xlink:href="#DejaVuSans-438"/>
     <use x="821.240234" xlink:href="#DejaVuSans-433"/>
     <use x="873.779297" xlink:href="#DejaVuSans-43d"/>
     <use x="939.160156" xlink:href="#DejaVuSans-430"/>
     <use x="1000.439453" xlink:href="#DejaVuSans-43b"/>
    </g>
   </g>
  </g>
  <g id="axes_2">
   <g id="patch_7">
    <path d="M 315.490909 266.792727 
L 518.4 266.792727 
L 518.4 69.12 
L 315.490909 69.12 
z
" style="fill:none;"/>
   </g>
   <g id="matplotlib.axis_3">
    <g id="xtick_4">
     <g id="line2d_10">
      <g>
       <use style="stroke:#000000;stroke-width:0.8;" x="324.71405" xlink:href="#me53bd5549e" y="266.792727"/>
      </g>
     </g>
     <g id="text_10">
      <!-- 0 -->
      <g transform="translate(319.62405 285.950227)scale(0.16 -0.16)">
       <use xlink:href="#DejaVuSans-30"/>
      </g>
     </g>
    </g>
    <g id="xtick_5">
     <g id="line2d_11">
      <g>
       <use style="stroke:#000000;stroke-width:0.8;" x="398.499174" xlink:href="#me53bd5549e" y="266.792727"/>
      </g>
     </g>
     <g id="text_11">
      <!-- 2 -->
      <g transform="translate(393.409174 285.950227)scale(0.16 -0.16)">
       <use xlink:href="#DejaVuSans-32"/>
      </g>
     </g>
    </g>
    <g id="xtick_6">
     <g id="line2d_12">
      <g>
       <use style="stroke:#000000;stroke-width:0.8;" x="472.284298" xlink:href="#me53bd5549e" y="266.792727"/>
      </g>
     </g>
     <g id="text_12">
      <!-- 4 -->
      <g transform="translate(467.194298 285.950227)scale(0.16 -0.16)">
       <use xlink:href="#DejaVuSans-34"/>
      </g>
     </g>
    </g>
   </g>
   <g id="matplotlib.axis_4">
    <g id="ytick_6">
     <g id="line2d_13">
      <g>
       <use style="stroke:#000000;stroke-width:0.8;" x="315.490909" xlink:href="#m2387a2455f" y="257.807603"/>
      </g>
     </g>
     <g id="text_13">
      <!-- 0.0 -->
      <g transform="translate(283.045909 263.886353)scale(0.16 -0.16)">
       <use xlink:href="#DejaVuSans-30"/>
       <use x="63.623047" xlink:href="#DejaVuSans-2e"/>
       <use x="95.410156" xlink:href="#DejaVuSans-30"/>
      </g>
     </g>
    </g>
    <g id="ytick_7">
     <g id="line2d_14">
      <g>
       <use style="stroke:#000000;stroke-width:0.8;" x="315.490909" xlink:href="#m2387a2455f" y="221.867107"/>
      </g>
     </g>
     <g id="text_14">
      <!-- 0.2 -->
      <g transform="translate(283.045909 227.945857)scale(0.16 -0.16)">
       <use xlink:href="#DejaVuSans-30"/>
       <use x="63.623047" xlink:href="#DejaVuSans-2e"/>
       <use x="95.410156" xlink:href="#DejaVuSans-32"/>
      </g>
     </g>
    </g>
    <g id="ytick_8">
     <g id="line2d_15">
      <g>
       <use style="stroke:#000000;stroke-width:0.8;" x="315.490909" xlink:href="#m2387a2455f" y="185.926612"/>
      </g>
     </g>
     <g id="text_15">
      <!-- 0.4 -->
      <g transform="translate(283.045909 192.005362)scale(0.16 -0.16)">
       <use xlink:href="#DejaVuSans-30"/>
       <use x="63.623047" xlink:href="#DejaVuSans-2e"/>
       <use x="95.410156" xlink:href="#DejaVuSans-34"/>
      </g>
     </g>
    </g>
    <g id="ytick_9">
     <g id="line2d_16">
      <g>
       <use style="stroke:#000000;stroke-width:0.8;" x="315.490909" xlink:href="#m2387a2455f" y="149.986116"/>
      </g>
     </g>
     <g id="text_16">
      <!-- 0.6 -->
      <defs>
       <path d="M 33.015625 40.375 
Q 26.375 40.375 22.484375 35.828125 
Q 18.609375 31.296875 18.609375 23.390625 
Q 18.609375 15.53125 22.484375 10.953125 
Q 26.375 6.390625 33.015625 6.390625 
Q 39.65625 6.390625 43.53125 10.953125 
Q 47.40625 15.53125 47.40625 23.390625 
Q 47.40625 31.296875 43.53125 35.828125 
Q 39.65625 40.375 33.015625 40.375 
z
M 52.59375 71.296875 
L 52.59375 62.3125 
Q 48.875 64.0625 45.09375 64.984375 
Q 41.3125 65.921875 37.59375 65.921875 
Q 27.828125 65.921875 22.671875 59.328125 
Q 17.53125 52.734375 16.796875 39.40625 
Q 19.671875 43.65625 24.015625 45.921875 
Q 28.375 48.1875 33.59375 48.1875 
Q 44.578125 48.1875 50.953125 41.515625 
Q 57.328125 34.859375 57.328125 23.390625 
Q 57.328125 12.15625 50.6875 5.359375 
Q 44.046875 -1.421875 33.015625 -1.421875 
Q 20.359375 -1.421875 13.671875 8.265625 
Q 6.984375 17.96875 6.984375 36.375 
Q 6.984375 53.65625 15.1875 63.9375 
Q 23.390625 74.21875 37.203125 74.21875 
Q 40.921875 74.21875 44.703125 73.484375 
Q 48.484375 72.75 52.59375 71.296875 
z
" id="DejaVuSans-36"/>
      </defs>
      <g transform="translate(283.045909 156.064866)scale(0.16 -0.16)">
       <use xlink:href="#DejaVuSans-30"/>
       <use x="63.623047" xlink:href="#DejaVuSans-2e"/>
       <use x="95.410156" xlink:href="#DejaVuSans-36"/>
      </g>
     </g>
    </g>
    <g id="ytick_10">
     <g id="line2d_17">
      <g>
       <use style="stroke:#000000;stroke-width:0.8;" x="315.490909" xlink:href="#m2387a2455f" y="114.04562"/>
      </g>
     </g>
     <g id="text_17">
      <!-- 0.8 -->
      <defs>
       <path d="M 31.78125 34.625 
Q 24.75 34.625 20.71875 30.859375 
Q 16.703125 27.09375 16.703125 20.515625 
Q 16.703125 13.921875 20.71875 10.15625 
Q 24.75 6.390625 31.78125 6.390625 
Q 38.8125 6.390625 42.859375 10.171875 
Q 46.921875 13.96875 46.921875 20.515625 
Q 46.921875 27.09375 42.890625 30.859375 
Q 38.875 34.625 31.78125 34.625 
z
M 21.921875 38.8125 
Q 15.578125 40.375 12.03125 44.71875 
Q 8.5 49.078125 8.5 55.328125 
Q 8.5 64.0625 14.71875 69.140625 
Q 20.953125 74.21875 31.78125 74.21875 
Q 42.671875 74.21875 48.875 69.140625 
Q 55.078125 64.0625 55.078125 55.328125 
Q 55.078125 49.078125 51.53125 44.71875 
Q 48 40.375 41.703125 38.8125 
Q 48.828125 37.15625 52.796875 32.3125 
Q 56.78125 27.484375 56.78125 20.515625 
Q 56.78125 9.90625 50.3125 4.234375 
Q 43.84375 -1.421875 31.78125 -1.421875 
Q 19.734375 -1.421875 13.25 4.234375 
Q 6.78125 9.90625 6.78125 20.515625 
Q 6.78125 27.484375 10.78125 32.3125 
Q 14.796875 37.15625 21.921875 38.8125 
z
M 18.3125 54.390625 
Q 18.3125 48.734375 21.84375 45.5625 
Q 25.390625 42.390625 31.78125 42.390625 
Q 38.140625 42.390625 41.71875 45.5625 
Q 45.3125 48.734375 45.3125 54.390625 
Q 45.3125 60.0625 41.71875 63.234375 
Q 38.140625 66.40625 31.78125 66.40625 
Q 25.390625 66.40625 21.84375 63.234375 
Q 18.3125 60.0625 18.3125 54.390625 
z
" id="DejaVuSans-38"/>
      </defs>
      <g transform="translate(283.045909 120.12437)scale(0.16 -0.16)">
       <use xlink:href="#DejaVuSans-30"/>
       <use x="63.623047" xlink:href="#DejaVuSans-2e"/>
       <use x="95.410156" xlink:href="#DejaVuSans-38"/>
      </g>
     </g>
    </g>
    <g id="ytick_11">
     <g id="line2d_18">
      <g>
       <use style="stroke:#000000;stroke-width:0.8;" x="315.490909" xlink:href="#m2387a2455f" y="78.105124"/>
      </g>
     </g>
     <g id="text_18">
      <!-- 1.0 -->
      <g transform="translate(283.045909 84.183874)scale(0.16 -0.16)">
       <use xlink:href="#DejaVuSans-31"/>
       <use x="63.623047" xlink:href="#DejaVuSans-2e"/>
       <use x="95.410156" xlink:href="#DejaVuSans-30"/>
      </g>
     </g>
    </g>
   </g>
   <g id="line2d_19">
    <path clip-path="url(#p4ae5abc480)" d="M 324.71405 257.807603 
L 326.57731 257.807603 
L 328.440571 257.807603 
L 330.303832 257.807603 
L 332.167092 257.807603 
L 334.030353 257.807603 
L 335.893614 257.807603 
L 337.756875 257.807603 
L 339.620135 257.807603 
L 341.483396 257.807603 
L 343.346657 257.807603 
L 345.209917 257.807603 
L 347.073178 257.807603 
L 348.936439 257.807603 
L 350.799699 257.807603 
L 352.66296 257.807603 
L 354.526221 257.807603 
L 356.389482 257.807603 
L 358.252742 257.807603 
L 360.116003 257.807603 
L 361.979264 257.807603 
L 363.842524 257.807603 
L 365.705785 257.807603 
L 367.569046 257.807603 
L 369.432307 257.807603 
L 371.295567 257.807603 
L 373.158828 257.807603 
L 375.022089 257.807603 
L 376.885349 257.807603 
L 378.74861 257.807603 
L 380.611871 257.807603 
L 382.475131 257.807603 
L 384.338392 257.807603 
L 386.201653 257.807603 
L 388.064914 257.807603 
L 389.928174 257.807603 
L 391.791435 257.807603 
L 393.654696 257.807603 
L 395.517956 257.807603 
L 397.381217 257.807603 
L 399.244478 257.807603 
L 401.107739 257.807603 
L 402.970999 257.807603 
L 404.83426 257.807603 
L 406.697521 257.807603 
L 408.560781 257.807603 
L 410.424042 257.807603 
L 412.287303 257.807603 
L 414.150563 257.807603 
L 416.013824 257.807603 
L 417.877085 257.807603 
L 419.740346 257.807603 
L 421.603606 257.807603 
L 423.466867 257.807603 
L 425.330128 257.807603 
L 427.193388 257.807603 
L 429.056649 257.807603 
L 430.91991 257.807603 
L 432.783171 257.807603 
L 434.646431 257.807603 
L 436.509692 78.105124 
L 438.372953 78.105124 
L 440.236213 78.105124 
L 442.099474 78.105124 
L 443.962735 78.105124 
L 445.825995 78.105124 
L 447.689256 78.105124 
L 449.552517 78.105124 
L 451.415778 78.105124 
L 453.279038 78.105124 
L 455.142299 78.105124 
L 457.00556 78.105124 
L 458.86882 78.105124 
L 460.732081 78.105124 
L 462.595342 78.105124 
L 464.458603 78.105124 
L 466.321863 78.105124 
L 468.185124 78.105124 
L 470.048385 78.105124 
L 471.911645 78.105124 
L 473.774906 78.105124 
L 475.638167 78.105124 
L 477.501427 78.105124 
L 479.364688 78.105124 
L 481.227949 78.105124 
L 483.09121 78.105124 
L 484.95447 78.105124 
L 486.817731 78.105124 
L 488.680992 78.105124 
L 490.544252 78.105124 
L 492.407513 78.105124 
L 494.270774 78.105124 
L 496.134035 78.105124 
L 497.997295 78.105124 
L 499.860556 78.105124 
L 501.723817 78.105124 
L 503.587077 78.105124 
L 505.450338 78.105124 
L 507.313599 78.105124 
L 509.17686 78.105124 
" style="fill:none;stroke:#1f77b4;stroke-linecap:square;stroke-width:1.5;"/>
   </g>
   <g id="patch_8">
    <path d="M 315.490909 266.792727 
L 315.490909 69.12 
" style="fill:none;stroke:#000000;stroke-linecap:square;stroke-linejoin:miter;stroke-width:0.8;"/>
   </g>
   <g id="patch_9">
    <path d="M 518.4 266.792727 
L 518.4 69.12 
" style="fill:none;stroke:#000000;stroke-linecap:square;stroke-linejoin:miter;stroke-width:0.8;"/>
   </g>
   <g id="patch_10">
    <path d="M 315.490909 266.792727 
L 518.4 266.792727 
" style="fill:none;stroke:#000000;stroke-linecap:square;stroke-linejoin:miter;stroke-width:0.8;"/>
   </g>
   <g id="patch_11">
    <path d="M 315.490909 69.12 
L 518.4 69.12 
" style="fill:none;stroke:#000000;stroke-linecap:square;stroke-linejoin:miter;stroke-width:0.8;"/>
   </g>
   <g id="text_19">
    <!-- Функция прибора -->
    <defs>
     <path d="M 38.140625 57.90625 
Q 27.546875 56.9375 21.921875 51.953125 
Q 16.3125 46.96875 16.3125 37.359375 
Q 16.3125 27.734375 21.921875 22.78125 
Q 27.546875 17.828125 38.140625 16.84375 
z
M 48.046875 16.84375 
Q 58.640625 17.828125 64.203125 22.78125 
Q 69.78125 27.734375 69.78125 37.359375 
Q 69.78125 46.96875 64.203125 51.953125 
Q 58.640625 56.9375 48.046875 57.90625 
z
M 38.140625 8.6875 
Q 22.65625 9.8125 14.28125 17.109375 
Q 5.90625 24.421875 5.90625 37.359375 
Q 5.90625 50.296875 14.28125 57.640625 
Q 22.65625 64.984375 38.140625 66.109375 
L 38.140625 72.90625 
L 48.046875 72.90625 
L 48.046875 66.109375 
Q 63.53125 64.984375 71.84375 57.6875 
Q 80.171875 50.390625 80.171875 37.359375 
Q 80.171875 24.421875 71.84375 17.109375 
Q 63.53125 9.8125 48.046875 8.6875 
L 48.046875 0 
L 38.140625 0 
z
" id="DejaVuSans-424"/>
     <path d="M 32.171875 -5.078125 
Q 28.375 -14.84375 24.75 -17.8125 
Q 21.140625 -20.796875 15.09375 -20.796875 
L 7.90625 -20.796875 
L 7.90625 -13.28125 
L 13.1875 -13.28125 
Q 16.890625 -13.28125 18.9375 -11.515625 
Q 21 -9.765625 23.484375 -3.21875 
L 25.09375 0.875 
L 2.984375 54.6875 
L 12.5 54.6875 
L 29.59375 11.921875 
L 46.6875 54.6875 
L 56.203125 54.6875 
z
" id="DejaVuSans-443"/>
     <path d="M 9.078125 54.6875 
L 18.015625 54.6875 
L 18.015625 29 
L 43.359375 54.6875 
L 54.390625 54.6875 
L 33.5 33.546875 
L 57.078125 0 
L 47.015625 0 
L 27.640625 27.59375 
L 18.015625 17.828125 
L 18.015625 0 
L 9.078125 0 
z
" id="DejaVuSans-43a"/>
     <path d="M 56.296875 0 
L 9.078125 0 
L 9.078125 54.6875 
L 18.109375 54.6875 
L 18.109375 7.171875 
L 47.265625 7.171875 
L 47.265625 54.6875 
L 56.296875 54.6875 
L 56.296875 7.171875 
L 63.484375 7.171875 
L 63.484375 -13.8125 
L 56.296875 -13.8125 
z
" id="DejaVuSans-446"/>
     <path d="M 56.296875 54.6875 
L 56.296875 0 
L 47.265625 0 
L 47.265625 47.515625 
L 18.109375 47.515625 
L 18.109375 0 
L 9.078125 0 
L 9.078125 54.6875 
z
" id="DejaVuSans-43f"/>
     <path d="M 31.109375 56 
Q 42.828125 56 49.515625 48.375 
Q 56.203125 40.765625 56.203125 27.296875 
Q 56.203125 13.875 49.515625 6.21875 
Q 42.828125 -1.421875 31.109375 -1.421875 
Q 19.34375 -1.421875 12.84375 6 
Q 6.34375 13.421875 6 27.296875 
L 5.71875 38.484375 
Q 5.46875 44.28125 5.46875 46.296875 
Q 5.46875 54.109375 8.296875 59.859375 
Q 12.75 68.890625 20.4375 72.796875 
Q 28.125 76.703125 41.015625 76.8125 
Q 46.96875 76.859375 49.609375 77.6875 
L 52.09375 70.5625 
Q 49.703125 69.578125 47.515625 69.53125 
L 35.296875 68.703125 
Q 29.15625 68.265625 25.4375 66.109375 
Q 15.71875 60.40625 14.796875 52.9375 
L 14.453125 50.203125 
Q 20.796875 56 31.109375 56 
z
M 31.109375 48.390625 
Q 23.875 48.390625 19.671875 42.75 
Q 15.484375 37.109375 15.484375 27.296875 
Q 15.484375 17.484375 19.65625 11.84375 
Q 23.828125 6.203125 31.109375 6.203125 
Q 38.28125 6.203125 42.484375 11.859375 
Q 46.6875 17.53125 46.6875 27.296875 
Q 46.6875 37.015625 42.484375 42.703125 
Q 38.28125 48.390625 31.109375 48.390625 
z
" id="DejaVuSans-431"/>
     <path d="M 30.609375 48.390625 
Q 23.390625 48.390625 19.1875 42.75 
Q 14.984375 37.109375 14.984375 27.296875 
Q 14.984375 17.484375 19.15625 11.84375 
Q 23.34375 6.203125 30.609375 6.203125 
Q 37.796875 6.203125 41.984375 11.859375 
Q 46.1875 17.53125 46.1875 27.296875 
Q 46.1875 37.015625 41.984375 42.703125 
Q 37.796875 48.390625 30.609375 48.390625 
z
M 30.609375 56 
Q 42.328125 56 49.015625 48.375 
Q 55.71875 40.765625 55.71875 27.296875 
Q 55.71875 13.875 49.015625 6.21875 
Q 42.328125 -1.421875 30.609375 -1.421875 
Q 18.84375 -1.421875 12.171875 6.21875 
Q 5.515625 13.875 5.515625 27.296875 
Q 5.515625 40.765625 12.171875 48.375 
Q 18.84375 56 30.609375 56 
z
" id="DejaVuSans-43e"/>
    </defs>
    <g transform="translate(326.945455 63.12)scale(0.192 -0.192)">
     <use xlink:href="#DejaVuSans-424"/>
     <use x="86.083984" xlink:href="#DejaVuSans-443"/>
     <use x="145.263672" xlink:href="#DejaVuSans-43d"/>
     <use x="210.644531" xlink:href="#DejaVuSans-43a"/>
     <use x="271.044922" xlink:href="#DejaVuSans-446"/>
     <use x="339.111328" xlink:href="#DejaVuSans-438"/>
     <use x="404.101562" xlink:href="#DejaVuSans-44f"/>
     <use x="464.257812" xlink:href="#DejaVuSans-20"/>
     <use x="496.044922" xlink:href="#DejaVuSans-43f"/>
     <use x="561.425781" xlink:href="#DejaVuSans-440"/>
     <use x="624.902344" xlink:href="#DejaVuSans-438"/>
     <use x="689.892578" xlink:href="#DejaVuSans-431"/>
     <use x="751.5625" xlink:href="#DejaVuSans-43e"/>
     <use x="812.744141" xlink:href="#DejaVuSans-440"/>
     <use x="876.220703" xlink:href="#DejaVuSans-430"/>
    </g>
   </g>
  </g>
  <g id="axes_3">
   <g id="patch_12">
    <path d="M 72 504 
L 518.4 504 
L 518.4 306.327273 
L 72 306.327273 
z
" style="fill:none;"/>
   </g>
   <g id="matplotlib.axis_5">
    <g id="xtick_7">
     <g id="line2d_20">
      <g>
       <use style="stroke:#000000;stroke-width:0.8;" x="92.290909" xlink:href="#me53bd5549e" y="504"/>
      </g>
     </g>
     <g id="text_20">
      <!-- 0 -->
      <g transform="translate(87.200909 523.1575)scale(0.16 -0.16)">
       <use xlink:href="#DejaVuSans-30"/>
      </g>
     </g>
    </g>
    <g id="xtick_8">
     <g id="line2d_21">
      <g>
       <use style="stroke:#000000;stroke-width:0.8;" x="173.454545" xlink:href="#me53bd5549e" y="504"/>
      </g>
     </g>
     <g id="text_21">
      <!-- 1 -->
      <g transform="translate(168.364545 523.1575)scale(0.16 -0.16)">
       <use xlink:href="#DejaVuSans-31"/>
      </g>
     </g>
    </g>
    <g id="xtick_9">
     <g id="line2d_22">
      <g>
       <use style="stroke:#000000;stroke-width:0.8;" x="254.618182" xlink:href="#me53bd5549e" y="504"/>
      </g>
     </g>
     <g id="text_22">
      <!-- 2 -->
      <g transform="translate(249.528182 523.1575)scale(0.16 -0.16)">
       <use xlink:href="#DejaVuSans-32"/>
      </g>
     </g>
    </g>
    <g id="xtick_10">
     <g id="line2d_23">
      <g>
       <use style="stroke:#000000;stroke-width:0.8;" x="335.781818" xlink:href="#me53bd5549e" y="504"/>
      </g>
     </g>
     <g id="text_23">
      <!-- 3 -->
      <defs>
       <path d="M 40.578125 39.3125 
Q 47.65625 37.796875 51.625 33 
Q 55.609375 28.21875 55.609375 21.1875 
Q 55.609375 10.40625 48.1875 4.484375 
Q 40.765625 -1.421875 27.09375 -1.421875 
Q 22.515625 -1.421875 17.65625 -0.515625 
Q 12.796875 0.390625 7.625 2.203125 
L 7.625 11.71875 
Q 11.71875 9.328125 16.59375 8.109375 
Q 21.484375 6.890625 26.8125 6.890625 
Q 36.078125 6.890625 40.9375 10.546875 
Q 45.796875 14.203125 45.796875 21.1875 
Q 45.796875 27.640625 41.28125 31.265625 
Q 36.765625 34.90625 28.71875 34.90625 
L 20.21875 34.90625 
L 20.21875 43.015625 
L 29.109375 43.015625 
Q 36.375 43.015625 40.234375 45.921875 
Q 44.09375 48.828125 44.09375 54.296875 
Q 44.09375 59.90625 40.109375 62.90625 
Q 36.140625 65.921875 28.71875 65.921875 
Q 24.65625 65.921875 20.015625 65.03125 
Q 15.375 64.15625 9.8125 62.3125 
L 9.8125 71.09375 
Q 15.4375 72.65625 20.34375 73.4375 
Q 25.25 74.21875 29.59375 74.21875 
Q 40.828125 74.21875 47.359375 69.109375 
Q 53.90625 64.015625 53.90625 55.328125 
Q 53.90625 49.265625 50.4375 45.09375 
Q 46.96875 40.921875 40.578125 39.3125 
z
" id="DejaVuSans-33"/>
      </defs>
      <g transform="translate(330.691818 523.1575)scale(0.16 -0.16)">
       <use xlink:href="#DejaVuSans-33"/>
      </g>
     </g>
    </g>
    <g id="xtick_11">
     <g id="line2d_24">
      <g>
       <use style="stroke:#000000;stroke-width:0.8;" x="416.945455" xlink:href="#me53bd5549e" y="504"/>
      </g>
     </g>
     <g id="text_24">
      <!-- 4 -->
      <g transform="translate(411.855455 523.1575)scale(0.16 -0.16)">
       <use xlink:href="#DejaVuSans-34"/>
      </g>
     </g>
    </g>
    <g id="xtick_12">
     <g id="line2d_25">
      <g>
       <use style="stroke:#000000;stroke-width:0.8;" x="498.109091" xlink:href="#me53bd5549e" y="504"/>
      </g>
     </g>
     <g id="text_25">
      <!-- 5 -->
      <g transform="translate(493.019091 523.1575)scale(0.16 -0.16)">
       <use xlink:href="#DejaVuSans-35"/>
      </g>
     </g>
    </g>
   </g>
   <g id="matplotlib.axis_6">
    <g id="ytick_12">
     <g id="line2d_26">
      <g>
       <use style="stroke:#000000;stroke-width:0.8;" x="72" xlink:href="#m2387a2455f" y="495.014876"/>
      </g>
     </g>
     <g id="text_26">
      <!-- 0 -->
      <g transform="translate(54.82 501.093626)scale(0.16 -0.16)">
       <use xlink:href="#DejaVuSans-30"/>
      </g>
     </g>
    </g>
    <g id="ytick_13">
     <g id="line2d_27">
      <g>
       <use style="stroke:#000000;stroke-width:0.8;" x="72" xlink:href="#m2387a2455f" y="438.2718"/>
      </g>
     </g>
     <g id="text_27">
      <!-- 20 -->
      <g transform="translate(44.64 444.35055)scale(0.16 -0.16)">
       <use xlink:href="#DejaVuSans-32"/>
       <use x="63.623047" xlink:href="#DejaVuSans-30"/>
      </g>
     </g>
    </g>
    <g id="ytick_14">
     <g id="line2d_28">
      <g>
       <use style="stroke:#000000;stroke-width:0.8;" x="72" xlink:href="#m2387a2455f" y="381.528724"/>
      </g>
     </g>
     <g id="text_28">
      <!-- 40 -->
      <g transform="translate(44.64 387.607474)scale(0.16 -0.16)">
       <use xlink:href="#DejaVuSans-34"/>
       <use x="63.623047" xlink:href="#DejaVuSans-30"/>
      </g>
     </g>
    </g>
    <g id="ytick_15">
     <g id="line2d_29">
      <g>
       <use style="stroke:#000000;stroke-width:0.8;" x="72" xlink:href="#m2387a2455f" y="324.785648"/>
      </g>
     </g>
     <g id="text_29">
      <!-- 60 -->
      <g transform="translate(44.64 330.864398)scale(0.16 -0.16)">
       <use xlink:href="#DejaVuSans-36"/>
       <use x="63.623047" xlink:href="#DejaVuSans-30"/>
      </g>
     </g>
    </g>
   </g>
   <g id="line2d_30">
    <path clip-path="url(#p402f2735e4)" d="M 92.290909 326.487992 
L 100.572913 326.488104 
L 108.854917 326.488466 
L 117.13692 326.489571 
L 125.418924 326.492733 
L 133.700928 326.501222 
L 141.982931 326.522614 
L 150.264935 326.573201 
L 158.546939 326.685463 
L 166.828942 326.919264 
L 175.110946 327.376215 
L 183.39295 328.214336 
L 191.674954 329.656972 
L 199.956957 331.987322 
L 208.238961 335.519967 
L 216.520965 340.545633 
L 224.802968 347.255322 
L 233.084972 355.66204 
L 241.366976 365.546803 
L 249.64898 376.454216 
L 257.930983 387.749392 
L 266.212987 398.726303 
L 274.494991 408.737433 
L 282.776994 417.305873 
L 291.058998 424.188213 
L 299.341002 429.376043 
L 307.623006 433.045913 
L 315.905009 435.482211 
L 324.187013 437.000047 
L 332.469017 437.887479 
L 340.75102 438.374453 
L 349.033024 438.625773 
L 357.315028 438.751818 
L 365.597032 438.83777 
L 373.879035 439.014022 
L 382.161039 439.609349 
L 390.443043 441.359822 
L 398.725046 445.412095 
L 407.00705 452.720144 
L 415.289054 462.975613 
L 423.571058 474.172729 
L 431.853061 483.68417 
L 440.135065 489.970026 
L 448.417069 493.20177 
L 456.699072 494.494259 
L 464.981076 494.896314 
L 473.26308 494.993579 
L 481.545083 495.011875 
L 489.827087 495.014551 
L 498.109091 495.014876 
" style="fill:none;stroke:#1f77b4;stroke-linecap:square;stroke-width:1.5;"/>
   </g>
   <g id="line2d_31">
    <defs>
     <path d="M 0 1.5 
C 0.397805 1.5 0.77937 1.341951 1.06066 1.06066 
C 1.341951 0.77937 1.5 0.397805 1.5 0 
C 1.5 -0.397805 1.341951 -0.77937 1.06066 -1.06066 
C 0.77937 -1.341951 0.397805 -1.5 0 -1.5 
C -0.397805 -1.5 -0.77937 -1.341951 -1.06066 -1.06066 
C -1.341951 -0.77937 -1.5 -0.397805 -1.5 0 
C -1.5 0.397805 -1.341951 0.77937 -1.06066 1.06066 
C -0.77937 1.341951 -0.397805 1.5 0 1.5 
z
" id="me958de7871" style="stroke:#ff7f0e;"/>
    </defs>
    <g clip-path="url(#p402f2735e4)">
     <use style="fill:#ff7f0e;stroke:#ff7f0e;" x="92.290909" xlink:href="#me958de7871" y="334.563276"/>
     <use style="fill:#ff7f0e;stroke:#ff7f0e;" x="100.572913" xlink:href="#me958de7871" y="340.091777"/>
     <use style="fill:#ff7f0e;stroke:#ff7f0e;" x="108.854917" xlink:href="#me958de7871" y="323.595702"/>
     <use style="fill:#ff7f0e;stroke:#ff7f0e;" x="117.13692" xlink:href="#me958de7871" y="315.312397"/>
     <use style="fill:#ff7f0e;stroke:#ff7f0e;" x="125.418924" xlink:href="#me958de7871" y="331.917506"/>
     <use style="fill:#ff7f0e;stroke:#ff7f0e;" x="133.700928" xlink:href="#me958de7871" y="317.947827"/>
     <use style="fill:#ff7f0e;stroke:#ff7f0e;" x="141.982931" xlink:href="#me958de7871" y="321.956823"/>
     <use style="fill:#ff7f0e;stroke:#ff7f0e;" x="150.264935" xlink:href="#me958de7871" y="331.423561"/>
     <use style="fill:#ff7f0e;stroke:#ff7f0e;" x="158.546939" xlink:href="#me958de7871" y="323.581969"/>
     <use style="fill:#ff7f0e;stroke:#ff7f0e;" x="166.828942" xlink:href="#me958de7871" y="325.463841"/>
     <use style="fill:#ff7f0e;stroke:#ff7f0e;" x="175.110946" xlink:href="#me958de7871" y="323.447772"/>
     <use style="fill:#ff7f0e;stroke:#ff7f0e;" x="183.39295" xlink:href="#me958de7871" y="327.109818"/>
     <use style="fill:#ff7f0e;stroke:#ff7f0e;" x="191.674954" xlink:href="#me958de7871" y="337.821095"/>
     <use style="fill:#ff7f0e;stroke:#ff7f0e;" x="199.956957" xlink:href="#me958de7871" y="330.219028"/>
     <use style="fill:#ff7f0e;stroke:#ff7f0e;" x="208.238961" xlink:href="#me958de7871" y="337.231851"/>
     <use style="fill:#ff7f0e;stroke:#ff7f0e;" x="216.520965" xlink:href="#me958de7871" y="333.648055"/>
     <use style="fill:#ff7f0e;stroke:#ff7f0e;" x="224.802968" xlink:href="#me958de7871" y="357.516635"/>
     <use style="fill:#ff7f0e;stroke:#ff7f0e;" x="233.084972" xlink:href="#me958de7871" y="355.404799"/>
     <use style="fill:#ff7f0e;stroke:#ff7f0e;" x="241.366976" xlink:href="#me958de7871" y="360.421424"/>
     <use style="fill:#ff7f0e;stroke:#ff7f0e;" x="249.64898" xlink:href="#me958de7871" y="385.686131"/>
     <use style="fill:#ff7f0e;stroke:#ff7f0e;" x="257.930983" xlink:href="#me958de7871" y="387.020862"/>
     <use style="fill:#ff7f0e;stroke:#ff7f0e;" x="266.212987" xlink:href="#me958de7871" y="400.681551"/>
     <use style="fill:#ff7f0e;stroke:#ff7f0e;" x="274.494991" xlink:href="#me958de7871" y="414.514836"/>
     <use style="fill:#ff7f0e;stroke:#ff7f0e;" x="282.776994" xlink:href="#me958de7871" y="429.16902"/>
     <use style="fill:#ff7f0e;stroke:#ff7f0e;" x="291.058998" xlink:href="#me958de7871" y="428.063267"/>
     <use style="fill:#ff7f0e;stroke:#ff7f0e;" x="299.341002" xlink:href="#me958de7871" y="428.458558"/>
     <use style="fill:#ff7f0e;stroke:#ff7f0e;" x="307.623006" xlink:href="#me958de7871" y="435.246695"/>
     <use style="fill:#ff7f0e;stroke:#ff7f0e;" x="315.905009" xlink:href="#me958de7871" y="430.235188"/>
     <use style="fill:#ff7f0e;stroke:#ff7f0e;" x="324.187013" xlink:href="#me958de7871" y="432.606714"/>
     <use style="fill:#ff7f0e;stroke:#ff7f0e;" x="332.469017" xlink:href="#me958de7871" y="435.398427"/>
     <use style="fill:#ff7f0e;stroke:#ff7f0e;" x="340.75102" xlink:href="#me958de7871" y="441.496146"/>
     <use style="fill:#ff7f0e;stroke:#ff7f0e;" x="349.033024" xlink:href="#me958de7871" y="438.188763"/>
     <use style="fill:#ff7f0e;stroke:#ff7f0e;" x="357.315028" xlink:href="#me958de7871" y="437.772651"/>
     <use style="fill:#ff7f0e;stroke:#ff7f0e;" x="365.597032" xlink:href="#me958de7871" y="441.855588"/>
     <use style="fill:#ff7f0e;stroke:#ff7f0e;" x="373.879035" xlink:href="#me958de7871" y="441.31974"/>
     <use style="fill:#ff7f0e;stroke:#ff7f0e;" x="382.161039" xlink:href="#me958de7871" y="444.457363"/>
     <use style="fill:#ff7f0e;stroke:#ff7f0e;" x="390.443043" xlink:href="#me958de7871" y="436.269147"/>
     <use style="fill:#ff7f0e;stroke:#ff7f0e;" x="398.725046" xlink:href="#me958de7871" y="443.425505"/>
     <use style="fill:#ff7f0e;stroke:#ff7f0e;" x="407.00705" xlink:href="#me958de7871" y="451.923231"/>
     <use style="fill:#ff7f0e;stroke:#ff7f0e;" x="415.289054" xlink:href="#me958de7871" y="465.034805"/>
     <use style="fill:#ff7f0e;stroke:#ff7f0e;" x="423.571058" xlink:href="#me958de7871" y="474.731338"/>
     <use style="fill:#ff7f0e;stroke:#ff7f0e;" x="431.853061" xlink:href="#me958de7871" y="484.391223"/>
     <use style="fill:#ff7f0e;stroke:#ff7f0e;" x="440.135065" xlink:href="#me958de7871" y="489.835524"/>
     <use style="fill:#ff7f0e;stroke:#ff7f0e;" x="448.417069" xlink:href="#me958de7871" y="493.027804"/>
     <use style="fill:#ff7f0e;stroke:#ff7f0e;" x="456.699072" xlink:href="#me958de7871" y="494.51877"/>
     <use style="fill:#ff7f0e;stroke:#ff7f0e;" x="464.981076" xlink:href="#me958de7871" y="494.896027"/>
     <use style="fill:#ff7f0e;stroke:#ff7f0e;" x="473.26308" xlink:href="#me958de7871" y="494.99326"/>
     <use style="fill:#ff7f0e;stroke:#ff7f0e;" x="481.545083" xlink:href="#me958de7871" y="495.01182"/>
     <use style="fill:#ff7f0e;stroke:#ff7f0e;" x="489.827087" xlink:href="#me958de7871" y="495.014527"/>
     <use style="fill:#ff7f0e;stroke:#ff7f0e;" x="498.109091" xlink:href="#me958de7871" y="495.014876"/>
    </g>
   </g>
   <g id="patch_13">
    <path d="M 72 504 
L 72 306.327273 
" style="fill:none;stroke:#000000;stroke-linecap:square;stroke-linejoin:miter;stroke-width:0.8;"/>
   </g>
   <g id="patch_14">
    <path d="M 518.4 504 
L 518.4 306.327273 
" style="fill:none;stroke:#000000;stroke-linecap:square;stroke-linejoin:miter;stroke-width:0.8;"/>
   </g>
   <g id="patch_15">
    <path d="M 72 504 
L 518.4 504 
" style="fill:none;stroke:#000000;stroke-linecap:square;stroke-linejoin:miter;stroke-width:0.8;"/>
   </g>
   <g id="patch_16">
    <path d="M 72 306.327273 
L 518.4 306.327273 
" style="fill:none;stroke:#000000;stroke-linecap:square;stroke-linejoin:miter;stroke-width:0.8;"/>
   </g>
   <g id="text_30">
    <!-- Результат измерения -->
    <defs>
     <path d="M 19.671875 64.796875 
L 19.671875 37.40625 
L 32.078125 37.40625 
Q 38.96875 37.40625 42.71875 40.96875 
Q 46.484375 44.53125 46.484375 51.125 
Q 46.484375 57.671875 42.71875 61.234375 
Q 38.96875 64.796875 32.078125 64.796875 
z
M 9.8125 72.90625 
L 32.078125 72.90625 
Q 44.34375 72.90625 50.609375 67.359375 
Q 56.890625 61.8125 56.890625 51.125 
Q 56.890625 40.328125 50.609375 34.8125 
Q 44.34375 29.296875 32.078125 29.296875 
L 19.671875 29.296875 
L 19.671875 0 
L 9.8125 0 
z
" id="DejaVuSans-420"/>
     <path d="M 43.453125 16.21875 
Q 43.453125 20.609375 40.25 22.90625 
Q 37.0625 25.203125 30.90625 25.203125 
L 18.109375 25.203125 
L 18.109375 7.171875 
L 30.90625 7.171875 
Q 37.0625 7.171875 40.25 9.484375 
Q 43.453125 11.8125 43.453125 16.21875 
z
M 9.078125 54.6875 
L 18.109375 54.6875 
L 18.109375 32.375 
L 31.296875 32.375 
Q 41.75 32.375 47.390625 28.390625 
Q 53.03125 24.421875 53.03125 16.21875 
Q 53.03125 8.015625 47.390625 4 
Q 41.75 0 31.296875 0 
L 9.078125 0 
z
" id="DejaVuSans-44c"/>
     <path d="M 2.9375 54.6875 
L 55.328125 54.6875 
L 55.328125 47.515625 
L 33.546875 47.515625 
L 33.546875 0 
L 24.703125 0 
L 24.703125 47.515625 
L 2.9375 47.515625 
z
" id="DejaVuSans-442"/>
    </defs>
    <g transform="translate(186.0225 300.327273)scale(0.192 -0.192)">
     <use xlink:href="#DejaVuSans-420"/>
     <use x="60.302734" xlink:href="#DejaVuSans-435"/>
     <use x="121.826172" xlink:href="#DejaVuSans-437"/>
     <use x="175" xlink:href="#DejaVuSans-443"/>
     <use x="234.179688" xlink:href="#DejaVuSans-43b"/>
     <use x="298.095703" xlink:href="#DejaVuSans-44c"/>
     <use x="357.03125" xlink:href="#DejaVuSans-442"/>
     <use x="415.283203" xlink:href="#DejaVuSans-430"/>
     <use x="476.5625" xlink:href="#DejaVuSans-442"/>
     <use x="534.814453" xlink:href="#DejaVuSans-20"/>
     <use x="566.601562" xlink:href="#DejaVuSans-438"/>
     <use x="631.591797" xlink:href="#DejaVuSans-437"/>
     <use x="684.765625" xlink:href="#DejaVuSans-43c"/>
     <use x="760.205078" xlink:href="#DejaVuSans-435"/>
     <use x="821.728516" xlink:href="#DejaVuSans-440"/>
     <use x="885.205078" xlink:href="#DejaVuSans-435"/>
     <use x="946.728516" xlink:href="#DejaVuSans-43d"/>
     <use x="1012.109375" xlink:href="#DejaVuSans-438"/>
     <use x="1077.099609" xlink:href="#DejaVuSans-44f"/>
    </g>
   </g>
   <g id="legend_1">
    <g id="patch_17">
     <path d="M 266.955 366.097273 
L 507.2 366.097273 
Q 510.4 366.097273 510.4 362.897273 
L 510.4 317.527273 
Q 510.4 314.327273 507.2 314.327273 
L 266.955 314.327273 
Q 263.755 314.327273 263.755 317.527273 
L 263.755 362.897273 
Q 263.755 366.097273 266.955 366.097273 
z
" style="fill:#ffffff;opacity:0.8;stroke:#cccccc;stroke-linejoin:miter;"/>
    </g>
    <g id="line2d_32">
     <path d="M 270.155 327.284773 
L 302.155 327.284773 
" style="fill:none;stroke:#1f77b4;stroke-linecap:square;stroke-width:1.5;"/>
    </g>
    <g id="line2d_33"/>
    <g id="text_31">
     <!-- Идеальное измерение -->
     <defs>
      <path d="M 21.625 7.171875 
L 47.703125 7.171875 
L 47.703125 47.515625 
L 28.8125 47.515625 
L 28.8125 40.671875 
Q 28.8125 20.5625 23.046875 9.8125 
z
M 8.59375 7.171875 
Q 13.03125 9.125 14.984375 13.28125 
Q 19.78125 23.578125 19.78125 44.34375 
L 19.78125 54.6875 
L 56.734375 54.6875 
L 56.734375 7.171875 
L 63.921875 7.171875 
L 63.921875 -13.8125 
L 56.734375 -13.8125 
L 56.734375 0 
L 12.40625 0 
L 12.40625 -13.8125 
L 5.21875 -13.8125 
L 5.21875 7.171875 
z
" id="DejaVuSans-434"/>
     </defs>
     <g transform="translate(314.955 332.884773)scale(0.16 -0.16)">
      <use xlink:href="#DejaVuSans-418"/>
      <use x="74.804688" xlink:href="#DejaVuSans-434"/>
      <use x="143.945312" xlink:href="#DejaVuSans-435"/>
      <use x="205.46875" xlink:href="#DejaVuSans-430"/>
      <use x="266.748047" xlink:href="#DejaVuSans-43b"/>
      <use x="330.664062" xlink:href="#DejaVuSans-44c"/>
      <use x="389.599609" xlink:href="#DejaVuSans-43d"/>
      <use x="454.980469" xlink:href="#DejaVuSans-43e"/>
      <use x="516.162109" xlink:href="#DejaVuSans-435"/>
      <use x="577.685547" xlink:href="#DejaVuSans-20"/>
      <use x="609.472656" xlink:href="#DejaVuSans-438"/>
      <use x="674.462891" xlink:href="#DejaVuSans-437"/>
      <use x="727.636719" xlink:href="#DejaVuSans-43c"/>
      <use x="803.076172" xlink:href="#DejaVuSans-435"/>
      <use x="864.599609" xlink:href="#DejaVuSans-440"/>
      <use x="928.076172" xlink:href="#DejaVuSans-435"/>
      <use x="989.599609" xlink:href="#DejaVuSans-43d"/>
      <use x="1054.980469" xlink:href="#DejaVuSans-438"/>
      <use x="1119.970703" xlink:href="#DejaVuSans-435"/>
     </g>
    </g>
    <g id="line2d_34"/>
    <g id="line2d_35">
     <g>
      <use style="fill:#ff7f0e;stroke:#ff7f0e;" x="286.155" xlink:href="#me958de7871" y="350.769773"/>
     </g>
    </g>
    <g id="text_32">
     <!-- Реальное измерение -->
     <g transform="translate(314.955 356.369773)scale(0.16 -0.16)">
      <use xlink:href="#DejaVuSans-420"/>
      <use x="60.302734" xlink:href="#DejaVuSans-435"/>
      <use x="121.826172" xlink:href="#DejaVuSans-430"/>
      <use x="183.105469" xlink:href="#DejaVuSans-43b"/>
      <use x="247.021484" xlink:href="#DejaVuSans-44c"/>
      <use x="305.957031" xlink:href="#DejaVuSans-43d"/>
      <use x="371.337891" xlink:href="#DejaVuSans-43e"/>
      <use x="432.519531" xlink:href="#DejaVuSans-435"/>
      <use x="494.042969" xlink:href="#DejaVuSans-20"/>
      <use x="525.830078" xlink:href="#DejaVuSans-438"/>
      <use x="590.820312" xlink:href="#DejaVuSans-437"/>
      <use x="643.994141" xlink:href="#DejaVuSans-43c"/>
      <use x="719.433594" xlink:href="#DejaVuSans-435"/>
      <use x="780.957031" xlink:href="#DejaVuSans-440"/>
      <use x="844.433594" xlink:href="#DejaVuSans-435"/>
      <use x="905.957031" xlink:href="#DejaVuSans-43d"/>
      <use x="971.337891" xlink:href="#DejaVuSans-438"/>
      <use x="1036.328125" xlink:href="#DejaVuSans-435"/>
     </g>
    </g>
   </g>
  </g>
 </g>
 <defs>
  <clipPath id="pc743cef59b">
   <rect height="197.672727" width="202.909091" x="72" y="69.12"/>
  </clipPath>
  <clipPath id="p4ae5abc480">
   <rect height="197.672727" width="202.909091" x="315.490909" y="69.12"/>
  </clipPath>
  <clipPath id="p402f2735e4">
   <rect height="197.672727" width="446.4" x="72" y="306.327273"/>
  </clipPath>
 </defs>
</svg>
