<?xml version="1.0" encoding="utf-8" standalone="no"?>
<!DOCTYPE svg PUBLIC "-//W3C//DTD SVG 1.1//EN"
  "http://www.w3.org/Graphics/SVG/1.1/DTD/svg11.dtd">
<!-- Created with matplotlib (http://matplotlib.org/) -->
<svg height="360pt" version="1.1" viewBox="0 0 648 360" width="648pt" xmlns="http://www.w3.org/2000/svg" xmlns:xlink="http://www.w3.org/1999/xlink">
 <defs>
  <style type="text/css">
*{stroke-linecap:butt;stroke-linejoin:round;}
  </style>
 </defs>
 <g id="figure_1">
  <g id="patch_1">
   <path d="M 0 360 
L 648 360 
L 648 0 
L 0 0 
z
" style="fill:none;"/>
  </g>
  <g id="axes_1">
   <g id="patch_2">
    <path d="M 81 315 
L 309.272727 315 
L 309.272727 43.2 
L 81 43.2 
z
" style="fill:none;"/>
   </g>
   <g id="matplotlib.axis_1">
    <g id="xtick_1">
     <g id="line2d_1">
      <defs>
       <path d="M 0 0 
L 0 3.5 
" id="m5e162333ad" style="stroke:#000000;stroke-width:0.8;"/>
      </defs>
      <g>
       <use style="stroke:#000000;stroke-width:0.8;" x="91.376033" xlink:href="#m5e162333ad" y="315"/>
      </g>
     </g>
     <g id="text_1">
      <!-- 0 -->
      <defs>
       <path d="M 31.78125 66.40625 
Q 24.171875 66.40625 20.328125 58.90625 
Q 16.5 51.421875 16.5 36.375 
Q 16.5 21.390625 20.328125 13.890625 
Q 24.171875 6.390625 31.78125 6.390625 
Q 39.453125 6.390625 43.28125 13.890625 
Q 47.125 21.390625 47.125 36.375 
Q 47.125 51.421875 43.28125 58.90625 
Q 39.453125 66.40625 31.78125 66.40625 
z
M 31.78125 74.21875 
Q 44.046875 74.21875 50.515625 64.515625 
Q 56.984375 54.828125 56.984375 36.375 
Q 56.984375 17.96875 50.515625 8.265625 
Q 44.046875 -1.421875 31.78125 -1.421875 
Q 19.53125 -1.421875 13.0625 8.265625 
Q 6.59375 17.96875 6.59375 36.375 
Q 6.59375 54.828125 13.0625 64.515625 
Q 19.53125 74.21875 31.78125 74.21875 
z
" id="DejaVuSans-30"/>
      </defs>
      <g transform="translate(86.286033 334.1575)scale(0.16 -0.16)">
       <use xlink:href="#DejaVuSans-30"/>
      </g>
     </g>
    </g>
    <g id="xtick_2">
     <g id="line2d_2">
      <g>
       <use style="stroke:#000000;stroke-width:0.8;" x="174.384298" xlink:href="#m5e162333ad" y="315"/>
      </g>
     </g>
     <g id="text_2">
      <!-- 2 -->
      <defs>
       <path d="M 19.1875 8.296875 
L 53.609375 8.296875 
L 53.609375 0 
L 7.328125 0 
L 7.328125 8.296875 
Q 12.9375 14.109375 22.625 23.890625 
Q 32.328125 33.6875 34.8125 36.53125 
Q 39.546875 41.84375 41.421875 45.53125 
Q 43.3125 49.21875 43.3125 52.78125 
Q 43.3125 58.59375 39.234375 62.25 
Q 35.15625 65.921875 28.609375 65.921875 
Q 23.96875 65.921875 18.8125 64.3125 
Q 13.671875 62.703125 7.8125 59.421875 
L 7.8125 69.390625 
Q 13.765625 71.78125 18.9375 73 
Q 24.125 74.21875 28.421875 74.21875 
Q 39.75 74.21875 46.484375 68.546875 
Q 53.21875 62.890625 53.21875 53.421875 
Q 53.21875 48.921875 51.53125 44.890625 
Q 49.859375 40.875 45.40625 35.40625 
Q 44.1875 33.984375 37.640625 27.21875 
Q 31.109375 20.453125 19.1875 8.296875 
z
" id="DejaVuSans-32"/>
      </defs>
      <g transform="translate(169.294298 334.1575)scale(0.16 -0.16)">
       <use xlink:href="#DejaVuSans-32"/>
      </g>
     </g>
    </g>
    <g id="xtick_3">
     <g id="line2d_3">
      <g>
       <use style="stroke:#000000;stroke-width:0.8;" x="257.392562" xlink:href="#m5e162333ad" y="315"/>
      </g>
     </g>
     <g id="text_3">
      <!-- 4 -->
      <defs>
       <path d="M 37.796875 64.3125 
L 12.890625 25.390625 
L 37.796875 25.390625 
z
M 35.203125 72.90625 
L 47.609375 72.90625 
L 47.609375 25.390625 
L 58.015625 25.390625 
L 58.015625 17.1875 
L 47.609375 17.1875 
L 47.609375 0 
L 37.796875 0 
L 37.796875 17.1875 
L 4.890625 17.1875 
L 4.890625 26.703125 
z
" id="DejaVuSans-34"/>
      </defs>
      <g transform="translate(252.302562 334.1575)scale(0.16 -0.16)">
       <use xlink:href="#DejaVuSans-34"/>
      </g>
     </g>
    </g>
   </g>
   <g id="matplotlib.axis_2">
    <g id="ytick_1">
     <g id="line2d_4">
      <defs>
       <path d="M 0 0 
L -3.5 0 
" id="ma9f6fa2303" style="stroke:#000000;stroke-width:0.8;"/>
      </defs>
      <g>
       <use style="stroke:#000000;stroke-width:0.8;" x="81" xlink:href="#ma9f6fa2303" y="302.645455"/>
      </g>
     </g>
     <g id="text_4">
      <!-- 0.0 -->
      <defs>
       <path d="M 10.6875 12.40625 
L 21 12.40625 
L 21 0 
L 10.6875 0 
z
" id="DejaVuSans-2e"/>
      </defs>
      <g transform="translate(48.555 308.724205)scale(0.16 -0.16)">
       <use xlink:href="#DejaVuSans-30"/>
       <use x="63.623047" xlink:href="#DejaVuSans-2e"/>
       <use x="95.410156" xlink:href="#DejaVuSans-30"/>
      </g>
     </g>
    </g>
    <g id="ytick_2">
     <g id="line2d_5">
      <g>
       <use style="stroke:#000000;stroke-width:0.8;" x="81" xlink:href="#ma9f6fa2303" y="240.630168"/>
      </g>
     </g>
     <g id="text_5">
      <!-- 0.5 -->
      <defs>
       <path d="M 10.796875 72.90625 
L 49.515625 72.90625 
L 49.515625 64.59375 
L 19.828125 64.59375 
L 19.828125 46.734375 
Q 21.96875 47.46875 24.109375 47.828125 
Q 26.265625 48.1875 28.421875 48.1875 
Q 40.625 48.1875 47.75 41.5 
Q 54.890625 34.8125 54.890625 23.390625 
Q 54.890625 11.625 47.5625 5.09375 
Q 40.234375 -1.421875 26.90625 -1.421875 
Q 22.3125 -1.421875 17.546875 -0.640625 
Q 12.796875 0.140625 7.71875 1.703125 
L 7.71875 11.625 
Q 12.109375 9.234375 16.796875 8.0625 
Q 21.484375 6.890625 26.703125 6.890625 
Q 35.15625 6.890625 40.078125 11.328125 
Q 45.015625 15.765625 45.015625 23.390625 
Q 45.015625 31 40.078125 35.4375 
Q 35.15625 39.890625 26.703125 39.890625 
Q 22.75 39.890625 18.8125 39.015625 
Q 14.890625 38.140625 10.796875 36.28125 
z
" id="DejaVuSans-35"/>
      </defs>
      <g transform="translate(48.555 246.708918)scale(0.16 -0.16)">
       <use xlink:href="#DejaVuSans-30"/>
       <use x="63.623047" xlink:href="#DejaVuSans-2e"/>
       <use x="95.410156" xlink:href="#DejaVuSans-35"/>
      </g>
     </g>
    </g>
    <g id="ytick_3">
     <g id="line2d_6">
      <g>
       <use style="stroke:#000000;stroke-width:0.8;" x="81" xlink:href="#ma9f6fa2303" y="178.614882"/>
      </g>
     </g>
     <g id="text_6">
      <!-- 1.0 -->
      <defs>
       <path d="M 12.40625 8.296875 
L 28.515625 8.296875 
L 28.515625 63.921875 
L 10.984375 60.40625 
L 10.984375 69.390625 
L 28.421875 72.90625 
L 38.28125 72.90625 
L 38.28125 8.296875 
L 54.390625 8.296875 
L 54.390625 0 
L 12.40625 0 
z
" id="DejaVuSans-31"/>
      </defs>
      <g transform="translate(48.555 184.693632)scale(0.16 -0.16)">
       <use xlink:href="#DejaVuSans-31"/>
       <use x="63.623047" xlink:href="#DejaVuSans-2e"/>
       <use x="95.410156" xlink:href="#DejaVuSans-30"/>
      </g>
     </g>
    </g>
    <g id="ytick_4">
     <g id="line2d_7">
      <g>
       <use style="stroke:#000000;stroke-width:0.8;" x="81" xlink:href="#ma9f6fa2303" y="116.599595"/>
      </g>
     </g>
     <g id="text_7">
      <!-- 1.5 -->
      <g transform="translate(48.555 122.678345)scale(0.16 -0.16)">
       <use xlink:href="#DejaVuSans-31"/>
       <use x="63.623047" xlink:href="#DejaVuSans-2e"/>
       <use x="95.410156" xlink:href="#DejaVuSans-35"/>
      </g>
     </g>
    </g>
    <g id="ytick_5">
     <g id="line2d_8">
      <g>
       <use style="stroke:#000000;stroke-width:0.8;" x="81" xlink:href="#ma9f6fa2303" y="54.584309"/>
      </g>
     </g>
     <g id="text_8">
      <!-- 2.0 -->
      <g transform="translate(48.555 60.663059)scale(0.16 -0.16)">
       <use xlink:href="#DejaVuSans-32"/>
       <use x="63.623047" xlink:href="#DejaVuSans-2e"/>
       <use x="95.410156" xlink:href="#DejaVuSans-30"/>
      </g>
     </g>
    </g>
   </g>
   <g id="line2d_9">
    <path clip-path="url(#pe54e9ebdb2)" d="M 91.376033 302.644533 
L 93.472201 302.643735 
L 95.56837 302.642298 
L 97.664538 302.639752 
L 99.760706 302.635314 
L 101.856875 302.62771 
L 103.953043 302.614894 
L 106.049211 302.593655 
L 108.145379 302.559042 
L 110.241548 302.50358 
L 112.337716 302.416207 
L 114.433884 302.280884 
L 116.530053 302.074849 
L 118.626221 301.7665 
L 120.722389 301.312936 
L 122.818557 300.657271 
L 124.914726 299.725905 
L 127.010894 298.426044 
L 129.107062 296.643896 
L 131.203231 294.244035 
L 133.299399 291.070543 
L 135.395567 286.950537 
L 137.491736 281.700628 
L 139.587904 275.136704 
L 141.684072 267.087126 
L 143.78024 257.409041 
L 145.876409 246.007003 
L 147.972577 232.852602 
L 150.068745 218.003265 
L 152.164914 201.618049 
L 154.261082 183.968094 
L 156.35725 165.439511 
L 158.453418 146.526965 
L 160.549587 127.816998 
L 162.645755 109.961178 
L 164.741923 93.640396 
L 166.838092 79.52279 
L 168.93426 68.218824 
L 171.030428 60.237665 
L 173.126597 55.949194 
L 175.222765 55.555591 
L 177.318933 59.07553 
L 179.415101 66.342713 
L 181.51127 77.018891 
L 183.607438 90.619969 
L 185.703606 106.552373 
L 187.799775 124.155884 
L 189.895943 142.748649 
L 191.992111 161.670131 
L 194.088279 180.318327 
L 196.184448 198.178526 
L 198.280616 214.842073 
L 200.376784 230.014789 
L 202.472953 243.515822 
L 204.569121 255.268548 
L 206.665289 265.285648 
L 208.761458 273.65073 
L 210.857626 280.498694 
L 212.953794 285.996755 
L 215.049962 290.327479 
L 217.146131 293.674602 
L 219.242299 296.211643 
L 221.338467 298.092413 
L 223.434636 299.441287 
L 225.530804 300.339369 
L 227.626972 300.800817 
L 229.72314 300.732557 
L 231.819309 299.872836 
L 233.915477 297.712969 
L 236.011645 293.42469 
L 238.107814 285.840538 
L 240.203982 273.555197 
L 242.30015 255.211092 
L 244.396319 229.980783 
L 246.492487 198.158718 
L 248.588655 161.658776 
L 250.684823 124.149477 
L 252.780992 90.616411 
L 254.87716 66.340768 
L 256.973328 55.554545 
L 259.069497 60.237111 
L 261.165665 79.522502 
L 263.261833 109.96103 
L 265.358002 146.52689 
L 267.45417 183.968057 
L 269.550338 218.003247 
L 271.646506 246.006994 
L 273.742675 267.087122 
L 275.838843 281.700626 
L 277.935011 291.070542 
L 280.03118 296.643896 
L 282.127348 299.725904 
L 284.223516 301.312936 
L 286.319684 302.074849 
L 288.415853 302.416207 
L 290.512021 302.559042 
L 292.608189 302.614894 
L 294.704358 302.635314 
L 296.800526 302.642298 
L 298.896694 302.644533 
" style="fill:none;stroke:#1f77b4;stroke-linecap:square;stroke-width:1.5;"/>
   </g>
   <g id="line2d_10">
    <path clip-path="url(#pe54e9ebdb2)" d="M 91.376033 302.645455 
L 93.472201 302.643016 
L 95.56837 302.643016 
L 97.664538 302.637533 
L 99.760706 302.637533 
L 101.856875 302.621302 
L 103.953043 302.621302 
L 106.049211 302.576348 
L 108.145379 302.576348 
L 110.241548 302.459894 
L 112.337716 302.459894 
L 114.433884 302.177866 
L 116.530053 302.177866 
L 118.626221 301.539718 
L 120.722389 301.539718 
L 122.818557 300.191588 
L 124.914726 300.191588 
L 127.010894 297.53497 
L 129.107062 297.53497 
L 131.203231 292.657289 
L 133.299399 292.657289 
L 135.395567 284.325583 
L 137.491736 284.325583 
L 139.587904 271.111915 
L 141.684072 271.111915 
L 143.78024 251.708022 
L 145.876409 251.708022 
L 147.972577 225.427934 
L 150.068745 225.427934 
L 152.164914 192.793072 
L 154.261082 192.793072 
L 156.35725 155.983238 
L 158.453418 155.983238 
L 160.549587 118.889088 
L 162.645755 118.889088 
L 164.741923 86.581593 
L 166.838092 86.581593 
L 168.93426 64.228245 
L 171.030428 64.228245 
L 173.126597 55.752393 
L 175.222765 55.752393 
L 177.318933 62.709122 
L 179.415101 62.709122 
L 181.51127 83.81943 
L 183.607438 83.81943 
L 185.703606 115.354128 
L 187.799775 115.354128 
L 189.895943 152.20939 
L 191.992111 152.20939 
L 194.088279 189.248427 
L 196.184448 189.248427 
L 198.280616 222.428431 
L 200.376784 222.428431 
L 202.472953 249.392185 
L 204.569121 249.392185 
L 206.665289 269.468189 
L 208.761458 269.468189 
L 210.857626 283.247724 
L 212.953794 283.247724 
L 215.049962 292.00104 
L 217.146131 292.00104 
L 219.242299 297.152028 
L 221.338467 297.152028 
L 223.434636 299.890328 
L 225.530804 299.890328 
L 227.626972 300.766687 
L 229.72314 300.766687 
L 231.819309 298.792903 
L 233.915477 298.792903 
L 236.011645 289.632614 
L 238.107814 289.632614 
L 240.203982 264.383144 
L 242.30015 264.383144 
L 244.396319 214.069751 
L 246.492487 214.069751 
L 248.588655 142.904126 
L 250.684823 142.904126 
L 252.780992 78.47859 
L 254.87716 78.47859 
L 256.973328 57.895828 
L 259.069497 57.895828 
L 261.165665 94.741766 
L 263.261833 94.741766 
L 265.358002 165.247474 
L 267.45417 165.247474 
L 269.550338 232.00512 
L 271.646506 232.00512 
L 273.742675 274.393874 
L 275.838843 274.393874 
L 277.935011 293.857219 
L 280.03118 293.857219 
L 282.127348 300.51942 
L 284.223516 300.51942 
L 286.319684 302.245528 
L 288.415853 302.245528 
L 290.512021 302.586968 
L 292.608189 302.586968 
L 294.704358 302.640715 
L 296.800526 302.640715 
L 298.896694 302.640715 
" style="fill:none;stroke:#ff7f0e;stroke-linecap:square;stroke-width:1.5;"/>
   </g>
   <g id="patch_3">
    <path d="M 81 315 
L 81 43.2 
" style="fill:none;stroke:#000000;stroke-linecap:square;stroke-linejoin:miter;stroke-width:0.8;"/>
   </g>
   <g id="patch_4">
    <path d="M 309.272727 315 
L 309.272727 43.2 
" style="fill:none;stroke:#000000;stroke-linecap:square;stroke-linejoin:miter;stroke-width:0.8;"/>
   </g>
   <g id="patch_5">
    <path d="M 81 315 
L 309.272727 315 
" style="fill:none;stroke:#000000;stroke-linecap:square;stroke-linejoin:miter;stroke-width:0.8;"/>
   </g>
   <g id="patch_6">
    <path d="M 81 43.2 
L 309.272727 43.2 
" style="fill:none;stroke:#000000;stroke-linecap:square;stroke-linejoin:miter;stroke-width:0.8;"/>
   </g>
   <g id="text_9">
    <!-- Для идеального случая -->
    <defs>
     <path d="M 22.796875 8.296875 
L 55.03125 8.296875 
L 55.03125 64.59375 
L 31.34375 64.59375 
L 31.34375 54.25 
Q 31.34375 29.890625 25.875 13.71875 
Q 24.75 10.40625 22.796875 8.296875 
z
M 8.40625 8.296875 
Q 14.9375 11.375 16.796875 17.234375 
Q 21.53125 32.28125 21.53125 59.125 
L 21.53125 72.90625 
L 64.890625 72.90625 
L 64.890625 8.296875 
L 73.1875 8.296875 
L 73.1875 -15.671875 
L 64.890625 -15.671875 
L 64.890625 0 
L 13.234375 0 
L 13.234375 -15.671875 
L 4.9375 -15.671875 
L 4.9375 8.296875 
z
" id="DejaVuSans-414"/>
     <path d="M 3.71875 0 
L 3.71875 7.46875 
Q 12.59375 8.84375 15.328125 14.984375 
Q 18.65625 23.640625 18.65625 45.75 
L 18.65625 54.6875 
L 55.609375 54.6875 
L 55.609375 0 
L 46.625 0 
L 46.625 47.515625 
L 27.640625 47.515625 
L 27.640625 42.09375 
Q 27.640625 21 23.34375 11.53125 
Q 18.75 1.421875 3.71875 0 
z
" id="DejaVuSans-43b"/>
     <path d="M 18.453125 38.921875 
Q 18.453125 34.859375 21.578125 32.5625 
Q 24.703125 30.28125 30.515625 30.28125 
L 42.625 30.28125 
L 42.625 47.515625 
L 30.515625 47.515625 
Q 24.703125 47.515625 21.578125 45.265625 
Q 18.453125 43.015625 18.453125 38.921875 
z
M 5.671875 0 
L 22.359375 23.96875 
Q 16.703125 25.25 12.9375 28.59375 
Q 9.1875 31.9375 9.1875 38.921875 
Q 9.1875 46.828125 14.421875 50.75 
Q 19.671875 54.6875 30.28125 54.6875 
L 51.65625 54.6875 
L 51.65625 0 
L 42.625 0 
L 42.625 23.09375 
L 31.453125 23.09375 
L 15.328125 0 
z
" id="DejaVuSans-44f"/>
     <path id="DejaVuSans-20"/>
     <path d="M 55.90625 54.6875 
L 55.90625 0 
L 46.96875 0 
L 46.96875 43.890625 
L 20.609375 0 
L 9.078125 0 
L 9.078125 54.6875 
L 18.015625 54.6875 
L 18.015625 10.890625 
L 44.34375 54.6875 
z
" id="DejaVuSans-438"/>
     <path d="M 21.625 7.171875 
L 47.703125 7.171875 
L 47.703125 47.515625 
L 28.8125 47.515625 
L 28.8125 40.671875 
Q 28.8125 20.5625 23.046875 9.8125 
z
M 8.59375 7.171875 
Q 13.03125 9.125 14.984375 13.28125 
Q 19.78125 23.578125 19.78125 44.34375 
L 19.78125 54.6875 
L 56.734375 54.6875 
L 56.734375 7.171875 
L 63.921875 7.171875 
L 63.921875 -13.8125 
L 56.734375 -13.8125 
L 56.734375 0 
L 12.40625 0 
L 12.40625 -13.8125 
L 5.21875 -13.8125 
L 5.21875 7.171875 
z
" id="DejaVuSans-434"/>
     <path d="M 56.203125 29.59375 
L 56.203125 25.203125 
L 14.890625 25.203125 
Q 15.484375 15.921875 20.484375 11.0625 
Q 25.484375 6.203125 34.421875 6.203125 
Q 39.59375 6.203125 44.453125 7.46875 
Q 49.3125 8.734375 54.109375 11.28125 
L 54.109375 2.78125 
Q 49.265625 0.734375 44.1875 -0.34375 
Q 39.109375 -1.421875 33.890625 -1.421875 
Q 20.796875 -1.421875 13.15625 6.1875 
Q 5.515625 13.8125 5.515625 26.8125 
Q 5.515625 40.234375 12.765625 48.109375 
Q 20.015625 56 32.328125 56 
Q 43.359375 56 49.78125 48.890625 
Q 56.203125 41.796875 56.203125 29.59375 
z
M 47.21875 32.234375 
Q 47.125 39.59375 43.09375 43.984375 
Q 39.0625 48.390625 32.421875 48.390625 
Q 24.90625 48.390625 20.390625 44.140625 
Q 15.875 39.890625 15.1875 32.171875 
z
" id="DejaVuSans-435"/>
     <path d="M 34.28125 27.484375 
Q 23.390625 27.484375 19.1875 25 
Q 14.984375 22.515625 14.984375 16.5 
Q 14.984375 11.71875 18.140625 8.90625 
Q 21.296875 6.109375 26.703125 6.109375 
Q 34.1875 6.109375 38.703125 11.40625 
Q 43.21875 16.703125 43.21875 25.484375 
L 43.21875 27.484375 
z
M 52.203125 31.203125 
L 52.203125 0 
L 43.21875 0 
L 43.21875 8.296875 
Q 40.140625 3.328125 35.546875 0.953125 
Q 30.953125 -1.421875 24.3125 -1.421875 
Q 15.921875 -1.421875 10.953125 3.296875 
Q 6 8.015625 6 15.921875 
Q 6 25.140625 12.171875 29.828125 
Q 18.359375 34.515625 30.609375 34.515625 
L 43.21875 34.515625 
L 43.21875 35.40625 
Q 43.21875 41.609375 39.140625 45 
Q 35.0625 48.390625 27.6875 48.390625 
Q 23 48.390625 18.546875 47.265625 
Q 14.109375 46.140625 10.015625 43.890625 
L 10.015625 52.203125 
Q 14.9375 54.109375 19.578125 55.046875 
Q 24.21875 56 28.609375 56 
Q 40.484375 56 46.34375 49.84375 
Q 52.203125 43.703125 52.203125 31.203125 
z
" id="DejaVuSans-430"/>
     <path d="M 43.453125 16.21875 
Q 43.453125 20.609375 40.25 22.90625 
Q 37.0625 25.203125 30.90625 25.203125 
L 18.109375 25.203125 
L 18.109375 7.171875 
L 30.90625 7.171875 
Q 37.0625 7.171875 40.25 9.484375 
Q 43.453125 11.8125 43.453125 16.21875 
z
M 9.078125 54.6875 
L 18.109375 54.6875 
L 18.109375 32.375 
L 31.296875 32.375 
Q 41.75 32.375 47.390625 28.390625 
Q 53.03125 24.421875 53.03125 16.21875 
Q 53.03125 8.015625 47.390625 4 
Q 41.75 0 31.296875 0 
L 9.078125 0 
z
" id="DejaVuSans-44c"/>
     <path d="M 9.078125 54.6875 
L 18.109375 54.6875 
L 18.109375 32.375 
L 47.265625 32.375 
L 47.265625 54.6875 
L 56.296875 54.6875 
L 56.296875 0 
L 47.265625 0 
L 47.265625 25.203125 
L 18.109375 25.203125 
L 18.109375 0 
L 9.078125 0 
z
" id="DejaVuSans-43d"/>
     <path d="M 30.609375 48.390625 
Q 23.390625 48.390625 19.1875 42.75 
Q 14.984375 37.109375 14.984375 27.296875 
Q 14.984375 17.484375 19.15625 11.84375 
Q 23.34375 6.203125 30.609375 6.203125 
Q 37.796875 6.203125 41.984375 11.859375 
Q 46.1875 17.53125 46.1875 27.296875 
Q 46.1875 37.015625 41.984375 42.703125 
Q 37.796875 48.390625 30.609375 48.390625 
z
M 30.609375 56 
Q 42.328125 56 49.015625 48.375 
Q 55.71875 40.765625 55.71875 27.296875 
Q 55.71875 13.875 49.015625 6.21875 
Q 42.328125 -1.421875 30.609375 -1.421875 
Q 18.84375 -1.421875 12.171875 6.21875 
Q 5.515625 13.875 5.515625 27.296875 
Q 5.515625 40.765625 12.171875 48.375 
Q 18.84375 56 30.609375 56 
z
" id="DejaVuSans-43e"/>
     <path d="M 9.078125 0 
L 9.078125 54.6875 
L 47.65625 54.6875 
L 47.65625 47.515625 
L 18.109375 47.515625 
L 18.109375 0 
z
" id="DejaVuSans-433"/>
     <path d="M 48.78125 52.59375 
L 48.78125 44.1875 
Q 44.96875 46.296875 41.140625 47.34375 
Q 37.3125 48.390625 33.40625 48.390625 
Q 24.65625 48.390625 19.8125 42.84375 
Q 14.984375 37.3125 14.984375 27.296875 
Q 14.984375 17.28125 19.8125 11.734375 
Q 24.65625 6.203125 33.40625 6.203125 
Q 37.3125 6.203125 41.140625 7.25 
Q 44.96875 8.296875 48.78125 10.40625 
L 48.78125 2.09375 
Q 45.015625 0.34375 40.984375 -0.53125 
Q 36.96875 -1.421875 32.421875 -1.421875 
Q 20.0625 -1.421875 12.78125 6.34375 
Q 5.515625 14.109375 5.515625 27.296875 
Q 5.515625 40.671875 12.859375 48.328125 
Q 20.21875 56 33.015625 56 
Q 37.15625 56 41.109375 55.140625 
Q 45.0625 54.296875 48.78125 52.59375 
z
" id="DejaVuSans-441"/>
     <path d="M 32.171875 -5.078125 
Q 28.375 -14.84375 24.75 -17.8125 
Q 21.140625 -20.796875 15.09375 -20.796875 
L 7.90625 -20.796875 
L 7.90625 -13.28125 
L 13.1875 -13.28125 
Q 16.890625 -13.28125 18.9375 -11.515625 
Q 21 -9.765625 23.484375 -3.21875 
L 25.09375 0.875 
L 2.984375 54.6875 
L 12.5 54.6875 
L 29.59375 11.921875 
L 46.6875 54.6875 
L 56.203125 54.6875 
z
" id="DejaVuSans-443"/>
     <path d="M 41.015625 0 
L 41.015625 23 
L 24.265625 23 
Q 16.796875 23 11.8125 27.640625 
Q 7.328125 31.84375 7.328125 40.828125 
L 7.328125 54.6875 
L 16.3125 54.6875 
L 16.3125 41.65625 
Q 16.3125 35.9375 18.84375 33.0625 
Q 21.4375 30.171875 26.515625 30.171875 
L 41.015625 30.171875 
L 41.015625 54.6875 
L 50 54.6875 
L 50 0 
z
" id="DejaVuSans-447"/>
    </defs>
    <g transform="translate(75.667364 37.2)scale(0.192 -0.192)">
     <use xlink:href="#DejaVuSans-414"/>
     <use x="78.125" xlink:href="#DejaVuSans-43b"/>
     <use x="142.041016" xlink:href="#DejaVuSans-44f"/>
     <use x="202.197266" xlink:href="#DejaVuSans-20"/>
     <use x="233.984375" xlink:href="#DejaVuSans-438"/>
     <use x="298.974609" xlink:href="#DejaVuSans-434"/>
     <use x="368.115234" xlink:href="#DejaVuSans-435"/>
     <use x="429.638672" xlink:href="#DejaVuSans-430"/>
     <use x="490.917969" xlink:href="#DejaVuSans-43b"/>
     <use x="554.833984" xlink:href="#DejaVuSans-44c"/>
     <use x="613.769531" xlink:href="#DejaVuSans-43d"/>
     <use x="679.150391" xlink:href="#DejaVuSans-43e"/>
     <use x="740.332031" xlink:href="#DejaVuSans-433"/>
     <use x="792.871094" xlink:href="#DejaVuSans-43e"/>
     <use x="854.052734" xlink:href="#DejaVuSans-20"/>
     <use x="885.839844" xlink:href="#DejaVuSans-441"/>
     <use x="940.820312" xlink:href="#DejaVuSans-43b"/>
     <use x="1004.736328" xlink:href="#DejaVuSans-443"/>
     <use x="1063.916016" xlink:href="#DejaVuSans-447"/>
     <use x="1122.998047" xlink:href="#DejaVuSans-430"/>
     <use x="1184.277344" xlink:href="#DejaVuSans-44f"/>
    </g>
   </g>
   <g id="legend_1">
    <g id="patch_7">
     <path d="M 92.2 102.97 
L 227.835 102.97 
Q 231.035 102.97 231.035 99.77 
L 231.035 54.4 
Q 231.035 51.2 227.835 51.2 
L 92.2 51.2 
Q 89 51.2 89 54.4 
L 89 99.77 
Q 89 102.97 92.2 102.97 
z
" style="fill:#ffffff;opacity:0.8;stroke:#cccccc;stroke-linejoin:miter;"/>
    </g>
    <g id="line2d_11">
     <path d="M 95.4 64.1575 
L 127.4 64.1575 
" style="fill:none;stroke:#1f77b4;stroke-linecap:square;stroke-width:1.5;"/>
    </g>
    <g id="line2d_12"/>
    <g id="text_10">
     <!-- Истинный -->
     <defs>
      <path d="M 64.984375 72.90625 
L 64.984375 0 
L 55.421875 0 
L 55.421875 60.984375 
L 23.09375 0 
L 9.8125 0 
L 9.8125 72.90625 
L 19.390625 72.90625 
L 19.390625 11.921875 
L 51.703125 72.90625 
z
" id="DejaVuSans-418"/>
      <path d="M 2.9375 54.6875 
L 55.328125 54.6875 
L 55.328125 47.515625 
L 33.546875 47.515625 
L 33.546875 0 
L 24.703125 0 
L 24.703125 47.515625 
L 2.9375 47.515625 
z
" id="DejaVuSans-442"/>
      <path d="M 61.078125 54.6875 
L 70.0625 54.6875 
L 70.0625 0 
L 61.078125 0 
z
M 65.578125 56 
z
M 43.453125 16.21875 
Q 43.453125 20.609375 40.25 22.90625 
Q 37.0625 25.203125 30.90625 25.203125 
L 18.109375 25.203125 
L 18.109375 7.171875 
L 30.90625 7.171875 
Q 37.0625 7.171875 40.25 9.484375 
Q 43.453125 11.8125 43.453125 16.21875 
z
M 9.078125 54.6875 
L 18.109375 54.6875 
L 18.109375 32.375 
L 31.296875 32.375 
Q 41.75 32.375 47.390625 28.390625 
Q 53.03125 24.421875 53.03125 16.21875 
Q 53.03125 8.015625 47.390625 4 
Q 41.75 0 31.296875 0 
L 9.078125 0 
z
" id="DejaVuSans-44b"/>
      <path d="M 55.90625 54.6875 
L 55.90625 0 
L 46.96875 0 
L 46.96875 43.890625 
L 20.609375 0 
L 9.078125 0 
L 9.078125 54.6875 
L 18.015625 54.6875 
L 18.015625 10.890625 
L 44.34375 54.6875 
z
M 17.234375 75.96875 
L 23 75.96875 
Q 23.53125 72.3125 25.890625 70.46875 
Q 28.265625 68.640625 32.515625 68.640625 
Q 36.71875 68.640625 39.0625 70.453125 
Q 41.40625 72.265625 42.046875 75.96875 
L 47.796875 75.96875 
Q 47.3125 68.984375 43.453125 65.46875 
Q 39.59375 61.953125 32.515625 61.953125 
Q 25.4375 61.953125 21.578125 65.46875 
Q 17.71875 68.984375 17.234375 75.96875 
z
" id="DejaVuSans-439"/>
     </defs>
     <g transform="translate(140.2 69.7575)scale(0.16 -0.16)">
      <use xlink:href="#DejaVuSans-418"/>
      <use x="74.804688" xlink:href="#DejaVuSans-441"/>
      <use x="129.785156" xlink:href="#DejaVuSans-442"/>
      <use x="188.037109" xlink:href="#DejaVuSans-438"/>
      <use x="253.027344" xlink:href="#DejaVuSans-43d"/>
      <use x="318.408203" xlink:href="#DejaVuSans-43d"/>
      <use x="383.789062" xlink:href="#DejaVuSans-44b"/>
      <use x="462.744141" xlink:href="#DejaVuSans-439"/>
     </g>
    </g>
    <g id="line2d_13">
     <path d="M 95.4 87.6425 
L 127.4 87.6425 
" style="fill:none;stroke:#ff7f0e;stroke-linecap:square;stroke-width:1.5;"/>
    </g>
    <g id="line2d_14"/>
    <g id="text_11">
     <!-- Реальный -->
     <defs>
      <path d="M 19.671875 64.796875 
L 19.671875 37.40625 
L 32.078125 37.40625 
Q 38.96875 37.40625 42.71875 40.96875 
Q 46.484375 44.53125 46.484375 51.125 
Q 46.484375 57.671875 42.71875 61.234375 
Q 38.96875 64.796875 32.078125 64.796875 
z
M 9.8125 72.90625 
L 32.078125 72.90625 
Q 44.34375 72.90625 50.609375 67.359375 
Q 56.890625 61.8125 56.890625 51.125 
Q 56.890625 40.328125 50.609375 34.8125 
Q 44.34375 29.296875 32.078125 29.296875 
L 19.671875 29.296875 
L 19.671875 0 
L 9.8125 0 
z
" id="DejaVuSans-420"/>
     </defs>
     <g transform="translate(140.2 93.2425)scale(0.16 -0.16)">
      <use xlink:href="#DejaVuSans-420"/>
      <use x="60.302734" xlink:href="#DejaVuSans-435"/>
      <use x="121.826172" xlink:href="#DejaVuSans-430"/>
      <use x="183.105469" xlink:href="#DejaVuSans-43b"/>
      <use x="247.021484" xlink:href="#DejaVuSans-44c"/>
      <use x="305.957031" xlink:href="#DejaVuSans-43d"/>
      <use x="371.337891" xlink:href="#DejaVuSans-44b"/>
      <use x="450.292969" xlink:href="#DejaVuSans-439"/>
     </g>
    </g>
   </g>
  </g>
  <g id="axes_2">
   <g id="patch_8">
    <path d="M 354.927273 315 
L 583.2 315 
L 583.2 43.2 
L 354.927273 43.2 
z
" style="fill:none;"/>
   </g>
   <g id="matplotlib.axis_3">
    <g id="xtick_4">
     <g id="line2d_15">
      <g>
       <use style="stroke:#000000;stroke-width:0.8;" x="365.303306" xlink:href="#m5e162333ad" y="315"/>
      </g>
     </g>
     <g id="text_12">
      <!-- 0 -->
      <g transform="translate(360.213306 334.1575)scale(0.16 -0.16)">
       <use xlink:href="#DejaVuSans-30"/>
      </g>
     </g>
    </g>
    <g id="xtick_5">
     <g id="line2d_16">
      <g>
       <use style="stroke:#000000;stroke-width:0.8;" x="448.31157" xlink:href="#m5e162333ad" y="315"/>
      </g>
     </g>
     <g id="text_13">
      <!-- 2 -->
      <g transform="translate(443.22157 334.1575)scale(0.16 -0.16)">
       <use xlink:href="#DejaVuSans-32"/>
      </g>
     </g>
    </g>
    <g id="xtick_6">
     <g id="line2d_17">
      <g>
       <use style="stroke:#000000;stroke-width:0.8;" x="531.319835" xlink:href="#m5e162333ad" y="315"/>
      </g>
     </g>
     <g id="text_14">
      <!-- 4 -->
      <g transform="translate(526.229835 334.1575)scale(0.16 -0.16)">
       <use xlink:href="#DejaVuSans-34"/>
      </g>
     </g>
    </g>
   </g>
   <g id="matplotlib.axis_4">
    <g id="ytick_6">
     <g id="line2d_18">
      <g>
       <use style="stroke:#000000;stroke-width:0.8;" x="354.927273" xlink:href="#ma9f6fa2303" y="272.188874"/>
      </g>
     </g>
     <g id="text_15">
      <!-- −2 -->
      <defs>
       <path d="M 10.59375 35.5 
L 73.1875 35.5 
L 73.1875 27.203125 
L 10.59375 27.203125 
z
" id="DejaVuSans-2212"/>
      </defs>
      <g transform="translate(324.339773 278.267624)scale(0.16 -0.16)">
       <use xlink:href="#DejaVuSans-2212"/>
       <use x="83.789062" xlink:href="#DejaVuSans-32"/>
      </g>
     </g>
    </g>
    <g id="ytick_7">
     <g id="line2d_19">
      <g>
       <use style="stroke:#000000;stroke-width:0.8;" x="354.927273" xlink:href="#ma9f6fa2303" y="205.041194"/>
      </g>
     </g>
     <g id="text_16">
      <!-- 0 -->
      <g transform="translate(337.747273 211.119944)scale(0.16 -0.16)">
       <use xlink:href="#DejaVuSans-30"/>
      </g>
     </g>
    </g>
    <g id="ytick_8">
     <g id="line2d_20">
      <g>
       <use style="stroke:#000000;stroke-width:0.8;" x="354.927273" xlink:href="#ma9f6fa2303" y="137.893515"/>
      </g>
     </g>
     <g id="text_17">
      <!-- 2 -->
      <g transform="translate(337.747273 143.972265)scale(0.16 -0.16)">
       <use xlink:href="#DejaVuSans-32"/>
      </g>
     </g>
    </g>
    <g id="ytick_9">
     <g id="line2d_21">
      <g>
       <use style="stroke:#000000;stroke-width:0.8;" x="354.927273" xlink:href="#ma9f6fa2303" y="70.745835"/>
      </g>
     </g>
     <g id="text_18">
      <!-- 4 -->
      <g transform="translate(337.747273 76.824585)scale(0.16 -0.16)">
       <use xlink:href="#DejaVuSans-34"/>
      </g>
     </g>
    </g>
   </g>
   <g id="line2d_22">
    <path clip-path="url(#p833cb163b5)" d="M 365.303306 205.040945 
L 367.399474 205.040729 
L 369.495642 205.04034 
L 371.591811 205.03965 
L 373.687979 205.038449 
L 375.784147 205.036391 
L 377.880316 205.032922 
L 379.976484 205.027172 
L 382.072652 205.017803 
L 384.16882 205.00279 
L 386.264989 204.979139 
L 388.361157 204.942508 
L 390.457325 204.886737 
L 392.553494 204.80327 
L 394.649662 204.680495 
L 396.74583 204.503013 
L 398.841998 204.250901 
L 400.938167 203.899042 
L 403.034335 203.416632 
L 405.130503 202.767014 
L 407.226672 201.907981 
L 409.32284 200.792736 
L 411.419008 199.371638 
L 413.515177 197.59485 
L 415.611345 195.415909 
L 417.707513 192.796148 
L 419.803681 189.70973 
L 421.89985 186.148965 
L 423.996018 182.129397 
L 426.092186 177.694082 
L 428.188355 172.916416 
L 430.284523 167.900913 
L 432.380691 162.781475 
L 434.47686 157.716873 
L 436.573028 152.883481 
L 438.669196 148.465608 
L 440.765364 144.644113 
L 442.861533 141.584242 
L 444.957701 139.423822 
L 447.053869 138.262975 
L 449.150038 138.156431 
L 451.246206 139.109244 
L 453.342374 141.076397 
L 455.438542 143.966332 
L 457.534711 147.648009 
L 459.630879 151.960752 
L 461.727047 156.725846 
L 463.823216 161.758723 
L 465.919384 166.880579 
L 468.015552 171.92846 
L 470.111721 176.763038 
L 472.207889 181.273694 
L 474.304057 185.380797 
L 476.400225 189.035392 
L 478.496394 192.216738 
L 480.592562 194.928267 
L 482.68873 197.192611 
L 484.784899 199.046287 
L 486.881067 200.534557 
L 488.977235 201.706841 
L 491.073403 202.612874 
L 493.169572 203.299625 
L 495.26574 203.808731 
L 497.361908 204.173858 
L 499.458077 204.41696 
L 501.554245 204.541869 
L 503.650413 204.523392 
L 505.746582 204.290674 
L 507.84275 203.706019 
L 509.938918 202.545225 
L 512.035086 200.492271 
L 514.131255 197.166751 
L 516.227423 192.201185 
L 518.323591 185.371592 
L 520.41976 176.757676 
L 522.515928 166.877506 
L 524.612096 156.724112 
L 526.708264 147.647046 
L 528.804433 141.075871 
L 530.900601 138.156148 
L 532.996769 139.423672 
L 535.092938 144.644035 
L 537.189106 152.883441 
L 539.285274 162.781455 
L 541.381443 172.916406 
L 543.477611 182.129392 
L 545.573779 189.709727 
L 547.669947 195.415908 
L 549.766116 199.371638 
L 551.862284 201.907981 
L 553.958452 203.416632 
L 556.054621 204.250901 
L 558.150789 204.680495 
L 560.246957 204.886737 
L 562.343125 204.979139 
L 564.439294 205.017803 
L 566.535462 205.032922 
L 568.63163 205.038449 
L 570.727799 205.04034 
L 572.823967 205.040945 
" style="fill:none;stroke:#1f77b4;stroke-linecap:square;stroke-width:1.5;"/>
   </g>
   <g id="line2d_23">
    <path clip-path="url(#p833cb163b5)" d="M 365.303306 205.041194 
L 367.399474 172.330061 
L 369.495642 172.330061 
L 371.591811 302.645455 
L 373.687979 302.645455 
L 375.784147 254.051995 
L 377.880316 254.051995 
L 379.976484 106.791799 
L 382.072652 106.791799 
L 384.16882 287.69723 
L 386.264989 287.69723 
L 388.361157 181.320698 
L 390.457325 181.320698 
L 392.553494 149.028238 
L 394.649662 149.028238 
L 396.74583 251.438459 
L 398.841998 251.438459 
L 400.938167 193.906503 
L 403.034335 193.906503 
L 405.130503 216.969906 
L 407.226672 216.969906 
L 409.32284 183.373535 
L 411.419008 183.373535 
L 413.515177 141.66453 
L 415.611345 141.66453 
L 417.707513 250.021232 
L 419.803681 250.021232 
L 421.89985 163.547603 
L 423.996018 163.547603 
L 426.092186 226.245858 
L 428.188355 226.245858 
L 430.284523 63.815175 
L 432.380691 63.815175 
L 434.47686 217.536541 
L 436.573028 217.536541 
L 438.669196 175.358742 
L 440.765364 175.358742 
L 442.861533 55.554545 
L 444.957701 55.554545 
L 447.053869 197.143834 
L 449.150038 197.143834 
L 451.246206 124.213401 
L 453.342374 124.213401 
L 455.438542 123.192177 
L 457.534711 123.192177 
L 459.630879 118.335068 
L 461.727047 118.335068 
L 463.823216 211.583731 
L 465.919384 211.583731 
L 468.015552 202.70233 
L 470.111721 202.70233 
L 472.207889 164.877028 
L 474.304057 164.877028 
L 476.400225 234.693364 
L 478.496394 234.693364 
L 480.592562 191.009312 
L 482.68873 191.009312 
L 484.784899 188.52314 
L 486.881067 188.52314 
L 488.977235 168.962102 
L 491.073403 168.962102 
L 493.169572 224.610377 
L 495.26574 224.610377 
L 497.361908 207.503251 
L 499.458077 207.503251 
L 501.554245 180.883206 
L 503.650413 180.883206 
L 505.746582 208.211706 
L 507.84275 208.211706 
L 509.938918 186.476456 
L 512.035086 186.476456 
L 514.131255 253.489368 
L 516.227423 253.489368 
L 518.323591 162.698332 
L 520.41976 162.698332 
L 522.515928 154.761705 
L 524.612096 154.761705 
L 526.708264 127.462408 
L 528.804433 127.462408 
L 530.900601 147.668585 
L 532.996769 147.668585 
L 535.092938 147.885425 
L 537.189106 147.885425 
L 539.285274 172.828261 
L 541.381443 172.828261 
L 543.477611 186.153057 
L 545.573779 186.153057 
L 547.669947 196.219419 
L 549.766116 196.219419 
L 551.862284 202.809032 
L 553.958452 202.809032 
L 556.054621 204.465887 
L 558.150789 204.465887 
L 560.246957 204.931378 
L 562.343125 204.931378 
L 564.439294 205.025175 
L 566.535462 205.025175 
L 568.63163 205.039818 
L 570.727799 205.039818 
L 572.823967 205.039818 
" style="fill:none;stroke:#ff7f0e;stroke-linecap:square;stroke-width:1.5;"/>
   </g>
   <g id="patch_9">
    <path d="M 354.927273 315 
L 354.927273 43.2 
" style="fill:none;stroke:#000000;stroke-linecap:square;stroke-linejoin:miter;stroke-width:0.8;"/>
   </g>
   <g id="patch_10">
    <path d="M 583.2 315 
L 583.2 43.2 
" style="fill:none;stroke:#000000;stroke-linecap:square;stroke-linejoin:miter;stroke-width:0.8;"/>
   </g>
   <g id="patch_11">
    <path d="M 354.927273 315 
L 583.2 315 
" style="fill:none;stroke:#000000;stroke-linecap:square;stroke-linejoin:miter;stroke-width:0.8;"/>
   </g>
   <g id="patch_12">
    <path d="M 354.927273 43.2 
L 583.2 43.2 
" style="fill:none;stroke:#000000;stroke-linecap:square;stroke-linejoin:miter;stroke-width:0.8;"/>
   </g>
   <g id="text_19">
    <!-- Для реального случая -->
    <defs>
     <path d="M 18.109375 8.203125 
L 18.109375 -20.796875 
L 9.078125 -20.796875 
L 9.078125 54.6875 
L 18.109375 54.6875 
L 18.109375 46.390625 
Q 20.953125 51.265625 25.265625 53.625 
Q 29.59375 56 35.59375 56 
Q 45.5625 56 51.78125 48.09375 
Q 58.015625 40.1875 58.015625 27.296875 
Q 58.015625 14.40625 51.78125 6.484375 
Q 45.5625 -1.421875 35.59375 -1.421875 
Q 29.59375 -1.421875 25.265625 0.953125 
Q 20.953125 3.328125 18.109375 8.203125 
z
M 48.6875 27.296875 
Q 48.6875 37.203125 44.609375 42.84375 
Q 40.53125 48.484375 33.40625 48.484375 
Q 26.265625 48.484375 22.1875 42.84375 
Q 18.109375 37.203125 18.109375 27.296875 
Q 18.109375 17.390625 22.1875 11.75 
Q 26.265625 6.109375 33.40625 6.109375 
Q 40.53125 6.109375 44.609375 11.75 
Q 48.6875 17.390625 48.6875 27.296875 
z
" id="DejaVuSans-440"/>
    </defs>
    <g transform="translate(356.376136 37.2)scale(0.192 -0.192)">
     <use xlink:href="#DejaVuSans-414"/>
     <use x="78.125" xlink:href="#DejaVuSans-43b"/>
     <use x="142.041016" xlink:href="#DejaVuSans-44f"/>
     <use x="202.197266" xlink:href="#DejaVuSans-20"/>
     <use x="233.984375" xlink:href="#DejaVuSans-440"/>
     <use x="297.460938" xlink:href="#DejaVuSans-435"/>
     <use x="358.984375" xlink:href="#DejaVuSans-430"/>
     <use x="420.263672" xlink:href="#DejaVuSans-43b"/>
     <use x="484.179688" xlink:href="#DejaVuSans-44c"/>
     <use x="543.115234" xlink:href="#DejaVuSans-43d"/>
     <use x="608.496094" xlink:href="#DejaVuSans-43e"/>
     <use x="669.677734" xlink:href="#DejaVuSans-433"/>
     <use x="722.216797" xlink:href="#DejaVuSans-43e"/>
     <use x="783.398438" xlink:href="#DejaVuSans-20"/>
     <use x="815.185547" xlink:href="#DejaVuSans-441"/>
     <use x="870.166016" xlink:href="#DejaVuSans-43b"/>
     <use x="934.082031" xlink:href="#DejaVuSans-443"/>
     <use x="993.261719" xlink:href="#DejaVuSans-447"/>
     <use x="1052.34375" xlink:href="#DejaVuSans-430"/>
     <use x="1113.623047" xlink:href="#DejaVuSans-44f"/>
    </g>
   </g>
   <g id="legend_2">
    <g id="patch_13">
     <path d="M 436.365 307 
L 572 307 
Q 575.2 307 575.2 303.8 
L 575.2 258.43 
Q 575.2 255.23 572 255.23 
L 436.365 255.23 
Q 433.165 255.23 433.165 258.43 
L 433.165 303.8 
Q 433.165 307 436.365 307 
z
" style="fill:#ffffff;opacity:0.8;stroke:#cccccc;stroke-linejoin:miter;"/>
    </g>
    <g id="line2d_24">
     <path d="M 439.565 268.1875 
L 471.565 268.1875 
" style="fill:none;stroke:#1f77b4;stroke-linecap:square;stroke-width:1.5;"/>
    </g>
    <g id="line2d_25"/>
    <g id="text_20">
     <!-- Истинный -->
     <g transform="translate(484.365 273.7875)scale(0.16 -0.16)">
      <use xlink:href="#DejaVuSans-418"/>
      <use x="74.804688" xlink:href="#DejaVuSans-441"/>
      <use x="129.785156" xlink:href="#DejaVuSans-442"/>
      <use x="188.037109" xlink:href="#DejaVuSans-438"/>
      <use x="253.027344" xlink:href="#DejaVuSans-43d"/>
      <use x="318.408203" xlink:href="#DejaVuSans-43d"/>
      <use x="383.789062" xlink:href="#DejaVuSans-44b"/>
      <use x="462.744141" xlink:href="#DejaVuSans-439"/>
     </g>
    </g>
    <g id="line2d_26">
     <path d="M 439.565 291.6725 
L 471.565 291.6725 
" style="fill:none;stroke:#ff7f0e;stroke-linecap:square;stroke-width:1.5;"/>
    </g>
    <g id="line2d_27"/>
    <g id="text_21">
     <!-- Реальный -->
     <g transform="translate(484.365 297.2725)scale(0.16 -0.16)">
      <use xlink:href="#DejaVuSans-420"/>
      <use x="60.302734" xlink:href="#DejaVuSans-435"/>
      <use x="121.826172" xlink:href="#DejaVuSans-430"/>
      <use x="183.105469" xlink:href="#DejaVuSans-43b"/>
      <use x="247.021484" xlink:href="#DejaVuSans-44c"/>
      <use x="305.957031" xlink:href="#DejaVuSans-43d"/>
      <use x="371.337891" xlink:href="#DejaVuSans-44b"/>
      <use x="450.292969" xlink:href="#DejaVuSans-439"/>
     </g>
    </g>
   </g>
  </g>
 </g>
 <defs>
  <clipPath id="pe54e9ebdb2">
   <rect height="271.8" width="228.272727" x="81" y="43.2"/>
  </clipPath>
  <clipPath id="p833cb163b5">
   <rect height="271.8" width="228.272727" x="354.927273" y="43.2"/>
  </clipPath>
 </defs>
</svg>
